<svg width="483" height="19" viewBox="0 0 483 19" fill="none" xmlns="http://www.w3.org/2000/svg">
<path d="M454.195 9.66486C453.534 9.68014 452.866 9.69086 452.218 9.71342C451.798 9.72754 451.617 9.6876 451.336 9.66691C451.242 9.65971 451.141 9.64521 451.055 9.64712C450.4 9.66239 449.746 9.67949 449.092 9.69658C448.892 9.73236 448.766 9.77992 448.459 9.79757C448.159 9.8143 447.805 9.81467 447.471 9.82322C447.03 9.83371 446.589 9.84421 446.149 9.85378C445.928 9.85857 445.748 9.87609 445.675 9.909C445.662 9.91449 445.809 9.92801 445.89 9.93614C446.157 9.96323 446.419 9.99397 446.713 10.0147C446.994 10.0344 447.341 10.0012 447.642 10.0265C448.318 10.0832 448.325 10.0823 448.839 10.0708C449.279 10.0604 449.72 10.049 450.161 10.0412C450.248 10.0393 450.348 10.0529 450.442 10.0601C450.723 10.0798 450.904 10.1253 451.318 10.1075C451.632 10.0935 451.979 10.0904 452.306 10.0828C452.581 10.1089 452.835 10.1388 453.129 10.1595C453.404 10.1792 453.484 10.1947 453.338 10.2213C453.205 10.246 453.018 10.2563 452.771 10.2584C452.55 10.2595 452.33 10.2679 452.11 10.2727C451.996 10.2756 451.889 10.2775 451.782 10.2804C451.362 10.2908 451.362 10.2908 450.592 10.2332C450.291 10.2107 449.951 10.243 449.664 10.2214C449.469 10.207 449.302 10.1853 449.115 10.17C449.034 10.1637 448.907 10.1629 448.807 10.1648C448.473 10.1716 448.139 10.1765 447.819 10.1887C447.592 10.1971 447.459 10.2228 447.486 10.2483C447.493 10.2583 447.654 10.2728 447.747 10.2736C447.961 10.2752 448.188 10.2622 448.395 10.2683C448.596 10.2745 448.803 10.2925 448.951 10.3125C449.252 10.3541 449.592 10.3164 449.879 10.327C450.18 10.3386 450.428 10.3748 450.716 10.3964C450.789 10.4018 450.93 10.3925 451.043 10.3897C451.37 10.3829 451.698 10.3771 452.025 10.3704C452.299 10.3966 452.594 10.42 452.842 10.4498C453.29 10.5041 453.772 10.5246 454.352 10.4975C454.679 10.4826 455 10.4877 455.261 10.5231C455.529 10.5593 455.837 10.5553 456.177 10.5477C456.491 10.54 456.811 10.5196 457.132 10.5448C457.828 10.6007 457.835 10.6034 458.656 10.5807C458.903 10.574 459.09 10.572 459.278 10.5928C459.452 10.6118 459.639 10.628 459.82 10.6461C460.147 10.6393 460.481 10.6326 460.808 10.625C461.229 10.6145 461.463 10.627 461.564 10.678C461.625 10.709 461.653 10.7372 461.8 10.758C461.974 10.7834 462.161 10.7823 462.415 10.7747C462.655 10.7681 462.829 10.7579 462.928 10.725C462.968 10.7112 463.048 10.6984 463.121 10.6874C463.181 10.6791 463.275 10.6662 463.328 10.668C463.428 10.6715 463.562 10.6814 463.596 10.6932C463.925 10.8033 463.925 10.8042 464.26 10.8358C464.628 10.871 465.01 10.9025 465.345 10.9423C465.646 10.9776 465.946 10.9618 466.273 10.9614C466.521 10.9612 466.682 10.9847 466.662 11.0085C466.649 11.0221 466.556 11.0423 466.476 11.0442C465.821 11.0631 465.16 11.0793 464.499 11.0928C464.419 11.0947 464.319 11.0784 464.225 11.0702C464.037 11.054 463.87 11.0287 463.669 11.0234C463.469 11.0181 463.235 11.032 463.015 11.0368C462.795 11.0416 462.561 11.0537 462.36 11.0466C462.16 11.0395 461.999 11.0133 461.812 10.9961C461.724 10.988 461.604 10.9763 461.531 10.9791C461.043 11.0015 460.682 10.9717 460.334 10.932C460.26 10.9238 460.133 10.9185 460.04 10.9204C459.265 10.9367 458.497 10.9557 457.723 10.9739C457.409 10.9815 457.154 10.9498 457.086 10.8961C457.052 10.866 456.985 10.836 456.984 10.8059C456.983 10.7512 456.615 10.7214 456.348 10.7281C455.907 10.7377 455.46 10.7454 455.026 10.7596C454.672 10.7709 454.371 10.7602 454.13 10.7276C453.849 10.6905 453.528 10.6982 453.208 10.7085C452.967 10.7161 452.901 10.7462 452.916 10.8219C452.931 10.883 452.817 10.9023 452.383 10.9128C451.836 10.9261 451.282 10.9395 450.727 10.9501C450.64 10.952 450.54 10.9366 450.453 10.9285C450.266 10.9122 450.098 10.886 449.897 10.8807C449.697 10.8745 449.463 10.8884 449.243 10.8941C449.023 10.8989 448.789 10.9119 448.589 10.9058C448.388 10.8996 448.22 10.8724 448.04 10.8552C447.953 10.8471 447.846 10.8354 447.759 10.8373C447.318 10.845 446.877 10.8564 446.437 10.8669C445.942 10.8784 445.942 10.8784 445.24 10.8226C444.919 10.7973 444.598 10.8177 444.285 10.8254C443.951 10.833 443.637 10.837 443.375 10.8008C443.201 10.7772 443.007 10.7628 442.8 10.7676C442.246 10.7791 441.698 10.7934 441.144 10.8049C441.051 10.8068 440.924 10.8024 440.85 10.7942C440.495 10.7563 440.147 10.7266 439.653 10.7462C439.226 10.7631 438.765 10.7645 438.338 10.7804C438.104 10.7889 437.998 10.8182 438.045 10.8409C438.072 10.8528 438.213 10.8663 438.306 10.8662C438.52 10.8669 438.754 10.853 438.954 10.8582C439.368 10.8687 439.577 10.9452 440.118 10.9236C440.438 10.9105 440.772 10.9056 441.106 10.9016C441.193 10.9006 441.287 10.9179 441.38 10.9269C441.648 10.9512 441.883 10.9829 442.27 10.9661C442.59 10.953 442.931 10.949 443.258 10.9414C443.779 10.929 443.779 10.9299 444.455 10.9848C444.776 11.011 445.096 10.9896 445.41 10.9829C445.644 10.9781 445.864 10.9688 446.051 10.9814C446.339 11.0002 446.547 11.0438 446.901 11.0407C447.235 11.0376 447.562 11.0245 447.896 11.0196C448.103 11.0166 448.297 11.031 448.465 11.0555C448.639 11.0799 448.826 11.0907 449.053 11.085C449.38 11.0773 449.714 11.0679 450.048 11.063C450.142 11.062 450.249 11.0701 450.336 11.0773C450.523 11.0935 450.704 11.1125 450.885 11.1296C451.212 11.1238 451.546 11.1216 451.866 11.1104C452.113 11.1019 452.287 11.1054 452.488 11.1234C452.742 11.1478 452.95 11.1913 453.364 11.1699C453.571 11.1597 453.811 11.1622 454.018 11.1528C454.272 11.1407 454.446 11.1451 454.627 11.1723C454.968 11.2239 455.396 11.2244 455.837 11.2039C456.317 11.1815 456.678 11.2067 457.04 11.2464C457.422 11.288 457.422 11.2871 457.718 11.388C457.805 11.4171 458.052 11.4306 458.259 11.4249C458.607 11.4154 458.907 11.4196 459.162 11.454C459.43 11.4912 459.75 11.4863 460.078 11.4759C460.512 11.4618 460.946 11.4495 461.301 11.502C461.475 11.5274 461.662 11.5335 461.896 11.5269C462.557 11.5098 463.225 11.4991 463.872 11.4784C464.266 11.4652 464.494 11.4941 464.762 11.5185C465.123 11.5519 465.518 11.5816 465.519 11.6536C465.52 11.6655 465.614 11.6791 465.694 11.6881C465.868 11.7071 466.055 11.7233 466.236 11.7414C466.504 11.7685 466.765 11.791 467.132 11.776C467.452 11.7638 467.793 11.7598 468.12 11.7513C468.447 11.7427 468.748 11.7379 469.043 11.7722C469.384 11.8111 469.746 11.8481 470.134 11.8769C470.408 11.8976 470.768 11.8617 471.063 11.8897C471.243 11.9068 471.417 11.9267 471.611 11.9411C471.692 11.9474 471.819 11.9427 471.926 11.9408C472.146 11.9369 472.373 11.9339 472.587 11.9246C472.834 11.9143 473.021 11.9159 473.208 11.9367C473.382 11.9557 473.556 11.9819 473.757 11.9872C474.058 11.9951 474.391 11.9583 474.692 11.9999C474.847 12.0208 475.041 12.0406 475.241 12.0468C475.442 12.053 475.675 12.0391 475.889 12.0397C475.983 12.0396 476.096 12.0541 476.15 12.0659C476.184 12.0723 476.137 12.0897 476.091 12.0988C476.031 12.1098 475.944 12.1245 475.857 12.1264C475.196 12.1435 474.535 12.1579 473.874 12.1741C473.48 12.1836 473.48 12.1836 472.684 12.127C472.497 12.1135 472.29 12.1164 472.056 12.1231C471.742 12.1316 471.422 12.1474 471.094 12.1314C470.665 12.0698 470.138 12.0648 469.577 12.0891C469.343 12.0994 469.129 12.0996 468.955 12.0825C468.587 12.0482 468.199 12.0167 467.871 11.976C467.616 11.9443 467.496 11.9417 467.39 11.9856C467.357 11.9993 467.324 12.0139 467.331 12.0267C467.372 12.0722 467.446 12.1169 467.487 12.1624C467.501 12.1752 467.448 12.1898 467.415 12.2036C467.309 12.242 467.168 12.2394 466.934 12.2077C466.699 12.176 466.418 12.1553 466.044 12.1703C465.724 12.1834 465.377 12.182 465.056 12.196C464.562 12.2165 464.214 12.1877 463.859 12.1488C463.786 12.1407 463.659 12.1363 463.565 12.1382C462.57 12.1602 461.582 12.1849 460.587 12.207C460.373 12.2117 460.179 12.1983 460.012 12.1738C459.838 12.1493 459.644 12.1368 459.43 12.1416C458.548 12.1616 457.667 12.1799 456.786 12.2045C456.425 12.2149 456.138 12.2033 455.89 12.1717C455.702 12.1481 455.528 12.141 455.295 12.144C455.041 12.147 454.861 12.1563 454.734 12.1829C454.615 12.2086 454.702 12.224 454.969 12.2438C455.257 12.2654 455.525 12.2934 455.799 12.3186C456.02 12.3147 456.24 12.3072 456.454 12.3079C456.547 12.3078 456.635 12.3241 456.728 12.3332C456.996 12.3593 457.244 12.3855 457.624 12.3706C457.945 12.3575 458.285 12.3544 458.612 12.3458C459.066 12.3353 459.066 12.3353 459.802 12.392C459.99 12.4064 460.19 12.4053 460.431 12.3968C460.637 12.3902 460.852 12.4028 460.999 12.43C461.059 12.4409 461.04 12.4592 460.914 12.5195C460.915 12.5642 461.055 12.544 461.101 12.5147C461.174 12.4727 461.033 12.4592 460.766 12.4823C460.58 12.4989 460.487 12.5227 460.534 12.5418C460.561 12.5518 460.688 12.5644 460.914 12.5195C461.501 12.4642 461.948 12.4573 462.376 12.4423C462.629 12.4338 462.79 12.4373 462.991 12.4608C463.232 12.4888 463.473 12.5187 463.867 12.5037C464.294 12.4868 464.748 12.4845 465.182 12.4704C465.583 12.4572 465.791 12.4971 466.045 12.5206C466.353 12.5486 466.693 12.5163 466.974 12.5324C467.268 12.5485 467.476 12.5884 467.817 12.5954C468.311 12.5702 468.626 12.6155 469 12.6453C469.295 12.6678 469.642 12.6473 469.955 12.637C470.309 12.6257 470.604 12.6354 470.851 12.668C471.133 12.7051 471.447 12.6966 471.767 12.688C472.515 12.669 472.541 12.6662 472.977 12.716C473.292 12.7521 473.592 12.7354 473.906 12.7305C474.18 12.7549 474.448 12.781 474.736 12.8026C474.809 12.808 474.949 12.7988 475.063 12.7959C475.39 12.7883 475.724 12.7806 476.051 12.773C476.271 12.7682 476.505 12.7543 476.706 12.7595C476.906 12.7657 477.074 12.792 477.254 12.8092C477.435 12.8263 477.623 12.8434 477.797 12.8615C478.064 12.8886 478.319 12.9111 478.693 12.8971C479.013 12.8849 479.347 12.8809 479.681 12.8723C480.101 12.8619 480.088 12.8646 480.871 12.9185C481.292 12.9482 481.726 12.9113 482.153 12.9072C482.367 12.9051 482.574 12.915 482.722 12.9413C482.782 12.9521 482.763 12.9704 482.783 12.9859C481.681 13.0117 480.573 13.0338 479.484 13.065C479.064 13.0773 478.843 13.0447 478.615 13.0175C478.24 12.9741 477.747 13.0385 477.392 12.9823C477.177 12.9488 476.869 12.93 476.502 12.9468C476.289 12.9561 476.062 12.9554 475.841 12.9639C475.28 12.9845 474.766 12.9859 474.317 12.9235C474.163 12.9017 473.942 12.8901 473.782 12.8693C473.594 12.8467 473.413 12.8341 473.193 12.8389C472.198 12.8618 471.21 12.8847 470.222 12.9094C470.135 12.9114 470.048 12.9251 469.975 12.9352C469.788 12.961 469.849 12.981 470.15 12.9971C470.25 13.0025 470.331 13.0142 470.424 13.0233C470.605 13.0404 470.773 13.0676 470.973 13.0738C471.174 13.08 471.407 13.0669 471.628 13.0622C471.848 13.0574 472.082 13.0434 472.282 13.0487C472.483 13.0549 472.65 13.0812 472.838 13.0974C472.925 13.1055 473.032 13.1191 473.119 13.1181C473.56 13.1122 473.994 13.1017 474.434 13.093C474.709 13.1174 474.943 13.1527 475.271 13.1606C475.478 13.1658 475.698 13.1556 475.912 13.1572C476.006 13.158 476.126 13.1715 476.173 13.1834C476.2 13.1906 476.114 13.209 476.047 13.2181C475.794 13.2531 475.446 13.247 475.133 13.2583C474.792 13.2705 474.485 13.2672 474.223 13.2319C474.049 13.2083 473.855 13.1958 473.641 13.2006C473.087 13.213 472.54 13.2272 471.985 13.2378C471.892 13.2398 471.778 13.2317 471.691 13.2254C470.989 13.1705 470.989 13.1686 470.494 13.181C469.767 13.1991 469.767 13.1991 469.278 13.1512C469.184 13.1422 469.084 13.125 469.003 13.126C468.229 13.1414 467.461 13.1568 466.693 13.1785C466.439 13.1852 466.266 13.1854 466.078 13.1618C465.917 13.1419 465.73 13.1193 465.529 13.1141C465.322 13.1088 465.095 13.1227 464.875 13.1275C464.655 13.1323 464.421 13.1444 464.227 13.1373C464.027 13.1302 463.852 13.1048 463.678 13.0868C463.497 13.0678 463.304 13.0689 463.057 13.0765C462.296 13.0982 462.289 13.0955 461.533 13.0397C461.446 13.0334 461.332 13.0262 461.239 13.0282C460.684 13.0397 460.137 13.0539 459.583 13.0655C459.369 13.0702 459.161 13.0586 459.014 13.0323C458.954 13.0214 458.973 13.0031 458.933 12.9676C458.886 12.9594 458.939 12.974 458.953 12.9877C459.053 12.9857 459.173 12.9874 459.247 12.98C459.433 12.9625 459.526 12.9396 459.479 12.9205C459.452 12.9105 459.325 12.8979 459.245 12.898C459.098 12.8981 458.972 12.9183 458.933 12.9676C458.512 12.9981 458.065 13.005 457.631 13.02C457.377 13.0294 457.217 13.025 457.016 13.0015C456.775 12.9726 456.527 12.9445 456.133 12.9595C455.706 12.9764 455.252 12.9796 454.811 12.9928C454.304 13.008 454.081 12.9261 453.654 12.9283C453.213 12.9306 452.772 12.9466 452.332 12.958C451.944 12.9675 451.944 12.9675 451.142 12.909C450.847 12.8875 450.5 12.9197 450.213 12.8972C450.019 12.8828 449.851 12.8611 449.664 12.8458C449.584 12.8395 449.457 12.8396 449.356 12.8416C448.802 12.8531 448.241 12.861 447.707 12.8816C447.1 12.9059 446.638 12.8809 446.203 12.8275C445.655 12.8381 445.101 12.8441 444.56 12.862C444.166 12.8752 443.938 12.8453 443.671 12.821C443.577 12.8129 443.497 12.7993 443.396 12.7957C443.296 12.7922 443.176 12.7996 443.069 12.8024C442.628 12.8129 442.174 12.818 441.747 12.8348C441.22 12.8563 441.018 12.7817 440.61 12.773C440.337 12.818 440.191 12.8793 439.65 12.8844C439.209 12.8885 438.769 12.9036 438.328 12.9141C438.108 12.9188 437.887 12.9245 437.667 12.9293C437.313 12.9379 437.147 12.9737 437.221 13.0283C437.262 13.0584 437.296 13.0884 437.33 13.1185C437.398 13.1722 437.232 13.218 436.952 13.2247C436.177 13.2428 435.409 13.2619 434.634 13.2782C434.427 13.2829 434.227 13.2676 434.059 13.2432C433.885 13.2187 433.691 13.208 433.477 13.2128C432.703 13.2309 431.935 13.25 431.16 13.2663C431.073 13.2682 430.96 13.2592 430.873 13.252C430.685 13.2357 430.505 13.2168 430.324 13.1996C429.883 13.2083 429.449 13.2142 429.015 13.2256C428.314 13.2427 428.314 13.2436 427.798 13.194C427.705 13.185 427.611 13.1678 427.524 13.1688C427.19 13.1727 426.863 13.1822 426.529 13.1908C425.547 13.2155 425.547 13.2155 425.26 13.1884C424.998 13.1631 424.764 13.1324 424.37 13.1474C423.943 13.1642 423.489 13.1702 423.048 13.1797C422.721 13.1865 422.394 13.1941 422.066 13.1963C421.979 13.1973 421.886 13.18 421.792 13.171C421.524 13.143 421.263 13.1205 420.896 13.1364C420.682 13.1457 420.455 13.1478 420.235 13.1526C419.661 13.1659 419.661 13.1659 418.718 13.1121C418.624 13.1068 418.51 13.1005 418.417 13.1033C417.642 13.1206 416.874 13.1396 416.1 13.1559C416.006 13.1578 415.892 13.1525 415.799 13.148C414.742 13.0962 414.742 13.0962 413.62 13.1229C413.193 13.1324 413.18 13.1361 412.731 13.0882C412.53 13.0674 412.363 13.0576 412.129 13.0642C411.248 13.087 410.36 13.1025 409.485 13.129C409.091 13.1403 408.864 13.1132 408.596 13.0888C408.502 13.0807 408.402 13.0626 408.321 13.0636C407.44 13.0818 406.558 13.1037 405.677 13.122C405.597 13.1239 405.496 13.1057 405.403 13.0976C405.222 13.0814 405.048 13.0569 404.847 13.0517C404.64 13.0464 404.413 13.0603 404.186 13.0651C403.632 13.0775 403.632 13.0766 402.989 13.0235C402.902 13.0163 402.789 13.0063 402.702 13.0083C401.82 13.0274 400.932 13.0438 400.058 13.0712C399.557 13.0863 399.216 13.0602 398.861 13.0223C398.787 13.0141 398.66 13.0106 398.567 13.0125C397.572 13.0345 396.583 13.0593 395.588 13.0813C395.381 13.086 395.181 13.0707 395.013 13.0472C394.745 13.0101 394.431 13.015 394.097 13.0235C393.33 13.0435 393.323 13.0426 392.868 12.9992C392.774 12.9902 392.694 12.9784 392.593 12.974C392.5 12.9695 392.379 12.9724 392.279 12.9743C391.839 12.9839 391.398 12.9944 390.957 13.0049C390.516 13.0153 390.069 13.0213 389.635 13.0372C389.101 13.057 388.846 12.9979 388.471 12.9709C387.924 12.9834 387.363 12.9912 386.822 13.0109C386.408 13.026 386.213 12.986 385.939 12.9653C385.845 12.9581 385.745 12.9427 385.658 12.9446C384.663 12.9657 383.668 12.9887 382.68 13.0143C382.439 13.02 382.279 13.0129 382.078 12.9912C381.63 12.9424 381.609 12.9443 380.862 12.9633C380.534 12.9718 380.221 12.9794 379.939 12.9423C379.691 12.9088 379.391 12.9009 379.037 12.9122C378.603 12.9264 378.155 12.9341 377.715 12.9437C377.274 12.9542 376.833 12.9683 376.393 12.9734C376.039 12.9783 375.824 12.9356 375.543 12.914C375.456 12.9077 375.336 12.9069 375.235 12.9089C374.795 12.9175 374.341 12.9244 373.913 12.9403C373.393 12.96 373.104 12.9102 372.736 12.8813C372.656 12.875 372.522 12.8788 372.422 12.8817C371.648 12.8989 370.88 12.9179 370.105 12.9361C369.831 12.9117 369.55 12.8883 369.275 12.8639C368.834 12.8735 368.394 12.884 367.953 12.8936C367.619 12.9012 367.279 12.9043 366.965 12.9183C366.558 12.937 366.356 12.8943 366.082 12.8736C365.988 12.8664 365.888 12.851 365.801 12.8529C365.247 12.8635 364.693 12.875 364.145 12.8911C363.624 12.9072 363.416 12.8253 362.988 12.8266C362.547 12.828 362.093 12.8403 361.666 12.8572C361.172 12.8769 360.824 12.848 360.469 12.8092C360.395 12.801 360.268 12.7966 360.175 12.7985C359.621 12.81 359.073 12.8243 358.519 12.8358C358.425 12.8377 358.312 12.8333 358.218 12.8279C357.161 12.7752 357.161 12.7743 356.701 12.7857C356.373 12.7933 356.04 12.8028 355.706 12.8077C355.612 12.8096 355.498 12.8015 355.411 12.7943C354.715 12.7394 354.715 12.7385 354.215 12.7499C353.774 12.7604 353.333 12.7709 352.892 12.7814C352.618 12.757 352.337 12.7336 352.063 12.7093C351.515 12.7217 350.954 12.7314 350.413 12.7484C350.16 12.7559 349.992 12.7534 349.798 12.7308C349.557 12.7037 349.316 12.672 348.916 12.6879C348.488 12.7048 348.034 12.707 347.6 12.7212C347.079 12.7381 346.864 12.6553 346.443 12.6567C346.002 12.6581 345.548 12.6704 345.121 12.6872C344.627 12.7069 344.279 12.6781 343.924 12.6392C343.85 12.6311 343.723 12.6267 343.63 12.6286C342.415 12.6563 341.206 12.684 339.991 12.7135C339.243 12.7316 339.243 12.7325 337.819 12.6838C337.719 12.6803 337.611 12.6767 337.511 12.6787C337.071 12.6873 336.616 12.6942 336.189 12.7101C335.669 12.7298 335.38 12.6809 335.012 12.6511C334.932 12.6448 334.805 12.6486 334.698 12.6506C334.364 12.6573 334.037 12.6658 333.703 12.6735C333.263 12.684 332.822 12.6945 332.381 12.7049C332.107 12.6815 331.826 12.6572 331.551 12.6337C331.004 12.6462 330.443 12.6531 329.902 12.6728C329.488 12.6879 329.293 12.6497 329.019 12.6281C328.925 12.6209 328.825 12.6055 328.738 12.6065C327.743 12.6276 326.748 12.6496 325.76 12.6762C325.353 12.6876 325.165 12.6467 324.89 12.626C324.797 12.6197 324.69 12.608 324.603 12.6099C323.942 12.6233 323.281 12.6395 322.62 12.6557C322.246 12.6652 322.246 12.6652 321.43 12.6095C321.336 12.6032 321.229 12.5969 321.135 12.5989C319.039 12.6466 316.949 12.6971 314.852 12.7449C314.638 12.7497 314.444 12.7362 314.277 12.7118C314.102 12.6873 313.908 12.6747 313.695 12.6795C312.813 12.6996 311.925 12.7178 311.05 12.7425C310.69 12.7529 310.402 12.7413 310.154 12.7096C309.967 12.6861 309.793 12.6772 309.559 12.6829C309.119 12.6943 308.678 12.7038 308.237 12.7143C307.797 12.7248 307.356 12.7353 306.915 12.7458C306.474 12.7563 306.027 12.7622 305.593 12.7782C305.059 12.7979 304.797 12.7416 304.429 12.7137C303.768 12.7281 303.107 12.7424 302.453 12.7577C301.571 12.7778 300.69 12.7997 299.808 12.8188C299.728 12.8207 299.628 12.8044 299.534 12.7963C299.26 12.7738 299.059 12.742 298.651 12.7525C296.675 12.8029 294.685 12.846 292.702 12.8955C292.288 12.9059 292.106 12.8669 291.825 12.8462C291.732 12.8399 291.625 12.8272 291.538 12.8292C290.436 12.8531 289.334 12.8798 288.233 12.9055C287.785 12.916 287.785 12.916 287.036 12.8602C286.949 12.854 286.835 12.8459 286.741 12.8478C285.306 12.8803 283.877 12.9146 282.441 12.948C282.227 12.9528 282.034 12.9402 281.859 12.9158C281.692 12.8913 281.491 12.8778 281.284 12.8826C279.962 12.9132 278.633 12.9428 277.318 12.9761C276.964 12.9856 276.67 12.9777 276.415 12.9451C276.234 12.9216 276.054 12.9117 275.827 12.9174C273.843 12.9642 271.86 13.0091 269.877 13.0586C269.496 13.0681 269.229 13.051 268.988 13.0212C268.794 12.9977 268.626 12.9933 268.386 12.9972C268.132 13.002 267.979 13.0122 267.839 13.0397C267.659 13.0754 267.547 13.1203 267.119 13.1234C266.678 13.1266 266.231 13.138 265.797 13.154C265.383 13.1699 265.189 13.1291 264.928 13.1047C264.733 13.0876 264.553 13.085 264.306 13.0935C264.079 13.101 263.939 13.1167 263.806 13.146C263.513 13.2083 263.487 13.2084 263.125 13.1695C262.931 13.1487 262.757 13.1325 262.543 13.1364C261.662 13.1555 260.78 13.1765 259.899 13.1984C259.391 13.2108 259.385 13.2126 259.003 13.1674C258.816 13.1448 258.635 13.134 258.415 13.1397C255.991 13.1969 253.567 13.2523 251.143 13.3123C250.769 13.3218 250.515 13.3029 250.247 13.2758C250.16 13.2668 250.073 13.2541 249.973 13.2506C249.872 13.247 249.759 13.2508 249.652 13.2527C247.889 13.2938 246.119 13.333 244.363 13.3786C243.963 13.389 243.748 13.3601 243.474 13.3366C243.38 13.3285 243.3 13.3158 243.199 13.3123C243.099 13.3097 242.979 13.3162 242.872 13.319C241.109 13.3601 239.34 13.3993 237.584 13.4449C237.163 13.4554 236.982 13.4172 236.708 13.3974C236.614 13.3902 236.513 13.3767 236.427 13.3786C235.872 13.3892 235.325 13.4034 234.771 13.4159C233.448 13.4473 232.126 13.477 230.804 13.5093C230.297 13.5217 230.074 13.4408 229.647 13.4449C229.093 13.45 228.545 13.4688 227.991 13.4821C227.55 13.4926 227.11 13.5022 226.669 13.5136C226.235 13.5241 226.235 13.5241 225.151 13.4723C225.058 13.4678 224.944 13.4616 224.851 13.4635C223.308 13.4988 221.759 13.5342 220.223 13.5722C219.869 13.5808 219.575 13.5766 219.321 13.5431C219.14 13.5195 218.953 13.5079 218.732 13.5136C216.415 13.568 214.105 13.6223 211.788 13.6758C211.701 13.6777 211.587 13.6687 211.5 13.6615C211.313 13.6453 211.132 13.6263 210.951 13.6092C210.818 13.6303 210.645 13.6496 210.558 13.6734C210.439 13.7055 210.279 13.7148 210.025 13.7205C209.771 13.7262 209.611 13.7246 209.41 13.7011C209.169 13.6721 208.921 13.6496 208.527 13.6591C206.103 13.7191 203.679 13.7736 201.255 13.8326C200.855 13.8422 200.667 13.8022 200.386 13.7815C200.292 13.7752 200.185 13.7653 200.098 13.7672C199.103 13.7892 198.115 13.8131 197.12 13.836C194.362 13.9009 191.604 13.963 188.853 14.0315C188.353 14.0439 188.011 14.0214 187.656 13.9826C187.583 13.9744 187.456 13.97 187.362 13.9719C183.503 14.0616 179.643 14.1523 175.79 14.2429C175.583 14.2477 175.382 14.2333 175.215 14.2098C175.041 14.1853 174.847 14.1737 174.633 14.1784C172.87 14.2195 171.107 14.2605 169.345 14.3025C168.904 14.313 168.897 14.3139 168.442 14.2706C168.348 14.2615 168.248 14.2443 168.174 14.2462C168.021 14.2509 167.874 14.2739 167.768 14.305C167.662 14.338 167.495 14.3472 167.248 14.3539C166.994 14.3605 166.827 14.358 166.633 14.3363C166.385 14.3092 166.157 14.283 165.757 14.2925C160.689 14.4145 155.62 14.5319 150.552 14.653C150.145 14.6625 149.957 14.6244 149.676 14.6037C149.582 14.5974 149.489 14.5884 149.388 14.5867C149.281 14.585 149.168 14.5906 149.061 14.5934C140.794 14.7871 132.528 14.9817 124.261 15.1754C123.767 15.1869 123.774 15.1869 123.234 15.2713C123.168 15.2814 123.081 15.2952 122.987 15.2971C120.457 15.3581 117.919 15.4173 115.382 15.4765C114.28 15.5022 113.178 15.5289 112.077 15.5538C111.683 15.5624 111.683 15.5624 110.743 15.6619C110.663 15.6702 110.569 15.6812 110.476 15.6831C106.069 15.7871 101.661 15.8911 97.2475 15.9932C96.9003 16.0009 96.6201 16.0176 96.4607 16.0615C96.3477 16.0927 96.2011 16.1111 95.9808 16.1168C92.8958 16.1893 89.8109 16.2627 86.7192 16.3334C86.3519 16.342 86.1319 16.3677 85.9523 16.4062C85.8924 16.4191 85.8393 16.4337 85.7526 16.4429C85.6726 16.4512 85.5524 16.4541 85.4523 16.4569C82.808 16.5189 80.1638 16.5828 77.5128 16.6421C77.1188 16.6507 76.9591 16.6846 76.7661 16.7204C76.6995 16.7323 76.6531 16.7488 76.5664 16.7571C76.4797 16.7645 76.3528 16.7646 76.2459 16.7665C74.0423 16.8181 71.8388 16.8705 69.6353 16.922C69.2076 16.9179 69.1151 16.9709 68.9087 17.0031C68.8354 17.0141 68.7824 17.0287 68.6957 17.0361C68.6023 17.0435 68.4819 17.0427 68.3683 17.0447C66.6055 17.0857 64.8427 17.1295 63.0731 17.1678C62.6658 17.1764 62.5865 17.223 62.3667 17.2552C62.2934 17.2653 62.2204 17.2809 62.1336 17.2837C61.0318 17.3113 59.9301 17.3371 58.8283 17.3619C58.461 17.3705 58.461 17.3696 57.8148 17.4606C57.7415 17.4707 57.6548 17.4817 57.5613 17.4845C55.912 17.5246 54.256 17.5628 52.6 17.6019C52.3863 17.6066 52.2399 17.6287 52.1336 17.6598C52.0273 17.6909 51.8741 17.7112 51.6604 17.7159C50.3383 17.7474 49.0161 17.7798 47.6939 17.8085C47.3266 17.8162 47.0866 17.8392 46.9271 17.8805C46.8075 17.9116 46.6609 17.9272 46.4272 17.933C45.105 17.9635 43.7829 17.9968 42.454 18.0237C42.0667 18.0314 41.8669 18.0626 41.7073 18.1011C41.581 18.1323 41.4342 18.1434 41.1872 18.1491C38.7632 18.2045 36.3326 18.2599 33.9155 18.3208C33.5082 18.3312 33.3004 18.2995 33.0327 18.277C32.6512 18.2455 32.2965 18.2112 32.2951 18.14C32.2949 18.1291 32.181 18.1164 32.1007 18.1074C31.5047 18.0396 31.5047 18.0396 31.4096 17.9667C31.3553 17.9221 31.2942 17.8765 31.2465 17.831C31.1581 17.7562 30.9439 17.7373 30.3296 17.7516C30.1092 17.7564 29.8889 17.763 29.6685 17.7669C29.3413 17.7736 29.0935 17.7438 29.0323 17.6891C28.9982 17.659 28.9576 17.629 28.9236 17.5989C29.2575 17.5913 29.2507 17.5904 29.8363 17.4794C30.0825 17.4326 30.0826 17.4326 29.6074 17.3866C29.4266 17.3694 29.2525 17.3504 29.0584 17.3342C28.9714 17.327 28.8578 17.3226 28.7643 17.3245C28.21 17.336 27.6625 17.3494 27.115 17.3627C26.2336 17.3837 26.2335 17.3837 25.3363 17.2915C25.2627 17.2843 25.1489 17.2708 25.1621 17.2634C25.2349 17.2296 25.4149 17.2148 25.642 17.211C25.9759 17.2051 26.303 17.1957 26.6302 17.188C26.8506 17.1833 27.071 17.1776 27.2913 17.1728C27.4977 17.1379 27.7109 17.1039 27.9039 17.0682C28.2101 17.0131 28.2099 17.0113 27.7883 16.9734C27.5205 16.9481 27.2328 16.9256 26.9584 16.9022C26.6312 16.9098 26.2974 16.9184 25.9702 16.9251C25.5561 16.9337 25.3887 16.9166 25.2806 16.8574C25.186 16.8055 25.2987 16.7607 25.6191 16.7494C25.9463 16.7381 26.2536 16.7305 26.4196 16.6838C26.579 16.639 26.8592 16.6213 27.2065 16.6173C27.4269 16.6144 27.6473 16.6078 27.8676 16.6021C28.1547 16.5945 28.3075 16.5478 28.2463 16.4958C28.2122 16.4621 28.1448 16.4339 27.8841 16.4269C26.7277 16.3962 26.7143 16.3971 26.1385 16.3356C26.0849 16.3302 26.0446 16.3139 26.0645 16.3056C26.0976 16.2919 26.1707 16.2718 26.2508 16.2689C27.0186 16.2481 27.7865 16.2291 28.5545 16.2146C28.8082 16.2098 28.9952 16.2032 29.0814 16.1693C29.2006 16.1227 29.1463 16.0799 28.9119 16.0482C28.8382 16.0382 28.7175 16.0256 28.6374 16.0266C27.7559 16.0439 26.8812 16.0658 25.9997 16.0831C25.9196 16.085 25.7724 16.0697 25.7387 16.0578C25.6715 16.036 25.771 16.0067 26.0046 15.9965C26.3116 15.9825 26.6256 15.9812 26.8318 15.9354C27.1177 15.8703 27.4705 15.8107 27.7899 15.7483C27.8431 15.7373 27.9297 15.7162 27.9096 15.7144C27.7422 15.6945 27.5481 15.6792 27.374 15.6603C27.0794 15.6286 27.0784 15.5839 27.1443 15.541C27.1971 15.5063 27.3972 15.4924 27.6444 15.4921C27.7513 15.492 27.8849 15.4919 27.9716 15.4836C28.1983 15.4633 28.2713 15.4377 28.1573 15.4186C28.0903 15.4078 27.9698 15.3924 27.8896 15.3943C26.4606 15.4259 25.0248 15.4565 23.6026 15.4954C23.1819 15.5068 22.9876 15.4723 22.7333 15.4479C22.5391 15.429 22.3585 15.4219 22.1183 15.4358C21.8914 15.4488 21.6709 15.4417 21.53 15.4118C21.4159 15.3873 21.6158 15.3661 22.1565 15.3418C22.2566 15.3372 22.3701 15.3343 22.4434 15.3251C23.2163 15.2258 23.2162 15.2249 23.7504 15.2116C24.2713 15.1992 24.2714 15.1982 24.5442 15.1451C24.6706 15.1203 24.8103 15.0955 24.93 15.0699C24.9766 15.0598 25.0565 15.0414 25.0296 15.036C24.8821 15.0079 24.6815 15.0017 24.4478 15.0083C23.927 15.0244 23.3122 15.0122 23.0401 15.0992C22.9339 15.1321 22.767 15.1414 22.5266 15.1471C20.1094 15.2025 17.6921 15.2616 15.2681 15.3152C14.8741 15.3238 14.6945 15.3577 14.5416 15.3953C14.4087 15.4264 14.2618 15.4357 14.0081 15.4414C13.7543 15.4472 13.5539 15.4501 13.4063 15.4202C13.3191 15.402 13.3921 15.3764 13.5919 15.3506C13.8785 15.3139 13.8241 15.2683 13.7296 15.2255C13.6623 15.1973 13.4548 15.1775 13.2343 15.1795C12.9071 15.1835 12.5934 15.1939 12.3187 15.1577C12.158 15.1368 11.9572 15.1225 11.7765 15.1044C11.4283 15.0674 11.0801 15.0294 10.5929 15.0545C10.2587 15.0458 10.0242 15.0132 9.75648 14.9879C9.30802 14.9464 9.2678 14.9401 9.58755 14.895C9.94728 14.8445 9.66529 14.7791 9.8647 14.7296C10.0774 14.6765 10.3705 14.6297 10.63 14.5802C10.6966 14.5673 10.7565 14.5554 10.823 14.5426C10.669 14.5245 10.5283 14.5018 10.3476 14.4892C10.1135 14.4731 9.99279 14.4531 10.005 14.3965C9.95806 14.3884 9.97839 14.4093 10.0319 14.4148C10.0922 14.4202 10.2392 14.4155 10.3125 14.409C10.4992 14.3915 10.5922 14.3686 10.545 14.3495C10.5181 14.3395 10.391 14.3268 10.3108 14.3269C10.1639 14.327 10.0374 14.3472 9.9983 14.3965C9.25085 14.4347 8.47615 14.4538 7.70151 14.4692C7.62138 14.4711 7.52085 14.4529 7.42714 14.4439C7.1192 14.4132 7.11917 14.4141 6.21711 14.4059C6.12356 14.4051 5.99644 14.3925 5.94941 14.3797C5.75453 14.3243 5.76001 14.2632 5.66527 14.204C5.83818 14.1655 6.01097 14.1279 6.19058 14.0903C6.54978 14.0142 7.01616 13.9472 7.29504 13.8639C7.234 13.8192 7.1529 13.7746 7.4461 13.7378C8.28023 13.6914 8.2736 13.6914 8.49985 13.6474C9.14532 13.5226 9.78405 13.397 10.4563 13.2741C10.636 13.242 10.6357 13.2246 10.3147 13.2113C10.2144 13.2077 10.1074 13.2069 10.0005 13.2089C9.66664 13.2156 9.33296 13.2324 9.00553 13.229C8.67813 13.2266 8.43681 13.1868 8.16908 13.1624C7.89465 13.1371 7.62022 13.111 7.34577 13.0848C7.03184 13.0879 6.71844 13.1137 6.40361 13.073C6.16246 13.0413 5.86138 13.0188 5.58694 12.9927C5.79261 12.9231 6.17906 12.8698 6.47843 12.8084C6.75119 12.7525 6.75774 12.7534 7.49173 12.7097C7.83871 12.6893 7.95685 12.5861 7.66229 12.5563C7.30747 12.5202 6.93274 12.4868 6.57128 12.4525C6.25735 12.4556 5.93725 12.4806 5.63579 12.4398C5.40133 12.4091 5.13363 12.3883 4.7464 12.4006C4.09211 12.4213 3.42428 12.4321 2.76324 12.4492C2.53622 12.4549 2.28889 12.4515 2.18804 12.4206C2.12079 12.3988 2.31392 12.3684 2.53425 12.3618C2.86809 12.3524 3.16846 12.3411 3.33454 12.2953C3.49394 12.2496 3.78757 12.2356 4.13483 12.2288C4.22832 12.2269 4.33506 12.2158 4.3816 12.2048C4.62102 12.1517 4.88732 12.1058 5.40176 12.1071C5.61517 12.0886 5.7282 12.0657 5.66094 12.0439C5.62062 12.0321 5.48008 12.0167 5.39995 12.0186C4.84565 12.0283 4.29137 12.038 3.75058 12.055C3.49687 12.0626 3.30306 12.0646 3.14217 12.0374C3.02823 12.0192 3.08784 11.9946 3.30108 11.9679C3.48766 11.9449 3.54062 11.9184 3.52663 11.8874C3.49175 11.8153 3.29086 11.7946 2.64962 11.7998C2.18874 11.8039 2.07492 11.7922 1.97344 11.7303C1.94642 11.7157 1.87932 11.6957 1.92587 11.6856C2.21187 11.6233 2.39736 11.5465 2.93789 11.5167C3.15145 11.5056 3.37849 11.5053 3.51162 11.4815C3.64474 11.4576 3.76449 11.4301 3.90432 11.4072C4.07745 11.3796 4.19706 11.354 4.11654 11.3367C3.98229 11.3058 3.76853 11.3033 3.52157 11.3145C3.30798 11.3239 3.08087 11.325 2.86052 11.3307C2.46657 11.3412 2.14549 11.3178 2.0979 11.2777C1.9688 11.172 1.833 11.0672 1.71726 10.9615C1.70364 10.9488 1.73661 10.9323 1.78983 10.9213C1.9761 10.8828 2.17585 10.8461 2.36882 10.8085C2.59508 10.7654 2.95606 10.7733 3.2632 10.7647C3.69719 10.7524 3.69706 10.7533 4.27647 10.6652C4.5029 10.6303 4.89736 10.6436 5.13054 10.6123C5.20382 10.6022 5.31705 10.5857 5.29682 10.5766C5.26986 10.5647 5.13613 10.5557 5.03581 10.5504C4.94217 10.545 4.82857 10.5424 4.72842 10.5452C3.5131 10.5729 2.30453 10.6024 1.08919 10.6292C0.882185 10.634 0.654628 10.6142 0.580562 10.586C0.506533 10.5596 0.525855 10.5276 0.511877 10.4976C0.704846 10.46 0.92451 10.4251 1.0907 10.3848C1.217 10.3536 1.36371 10.3398 1.61754 10.3377C1.95151 10.3346 2.27867 10.3233 2.65261 10.3147C3.34466 10.1808 4.02317 10.0406 4.76866 9.90663C5.06818 9.8525 4.99369 9.79784 5.05264 9.74031C5.11168 9.68735 5.55942 9.6951 5.85973 9.67929C6.09997 9.66627 6.17943 9.63699 6.08549 9.61702C6.0318 9.60522 5.91134 9.59165 5.81781 9.59175C5.59735 9.59198 5.37707 9.60042 5.1567 9.6052C4.93634 9.60999 4.68243 9.60752 4.50237 9.62322C4.32898 9.63799 4.21598 9.66911 4.10295 9.69568C3.97662 9.725 3.80993 9.73522 3.55611 9.7373C3.2288 9.73946 2.90164 9.74801 2.57442 9.75473C2.21294 9.71953 1.83804 9.68526 1.48988 9.64821C1.42293 9.64099 1.40906 9.62002 1.41546 9.60633C1.4281 9.57074 1.32746 9.54895 1.10665 9.53185C0.919295 9.51744 0.765199 9.49663 0.59113 9.47856C0.724236 9.45379 0.870775 9.42992 0.977121 9.40336C1.2098 9.34747 1.50295 9.30704 2.01072 9.30834C2.2104 9.27256 2.36979 9.22861 2.62983 9.20371C2.87652 9.17974 3.29791 9.20302 3.48386 9.149C3.57684 9.12245 3.7166 9.09221 3.89675 9.08108C4.18366 9.06345 4.55795 9.07219 4.72392 9.02094C4.82353 8.99165 4.9699 8.96504 5.16348 8.95754C5.38377 8.9491 5.61082 8.94705 5.7708 8.92955C5.85746 8.92034 5.9507 8.90565 5.95044 8.89288C5.95027 8.88467 5.8165 8.87203 5.72286 8.86666C5.63588 8.86036 5.52209 8.85592 5.42192 8.85785C5.088 8.86366 4.76086 8.87403 4.42695 8.87985C4.33346 8.88177 4.22647 8.8755 4.12615 8.87013C3.83191 8.85584 3.85153 8.83758 4.08468 8.8045C4.31785 8.77233 4.48411 8.7311 4.67708 8.6935C4.89073 8.6869 5.15797 8.68936 5.30458 8.67188C5.55118 8.64334 5.72399 8.60211 5.92368 8.56633C6.14403 8.56063 6.37111 8.55858 6.57801 8.54833C6.66478 8.54459 6.70448 8.52448 6.77773 8.51255C6.91087 8.48961 7.02386 8.45665 7.20401 8.44552C7.49762 8.4288 7.85849 8.43481 8.03116 8.38446C8.13077 8.35517 8.28373 8.324 8.47075 8.32198C8.99175 8.3178 9.21119 8.26739 9.47744 8.21968C9.67713 8.1839 10.1051 8.20171 10.3248 8.1659C10.4713 8.14295 10.5777 8.11456 10.7242 8.09251C10.7841 8.08333 10.9109 8.07864 11.0111 8.0758C11.5586 8.06156 12.1129 8.05095 12.6604 8.03579C12.7472 8.03296 12.8271 8.0192 12.8937 8.00819C13.0335 7.98433 13.1196 7.95139 13.293 7.93571C13.4663 7.92002 13.7135 7.91977 13.9272 7.91499C14.615 7.9006 14.6686 7.90418 14.981 7.82632C15.2335 7.76312 15.8558 7.80718 16.0615 7.73764C16.1809 7.69738 16.4006 7.66432 16.7947 7.65935C17.349 7.65239 17.8965 7.6345 18.4507 7.62207C18.9448 7.61061 18.9382 7.61061 19.4709 7.52523C19.7106 7.48667 20.0649 7.49178 20.3787 7.48416C20.7126 7.47652 21.0196 7.46526 21.179 7.41949C21.3384 7.37463 21.632 7.35972 21.9726 7.35298C22.2865 7.34627 22.6407 7.35048 22.8872 7.31373C23.4866 7.22555 23.4799 7.22463 23.9006 7.21508C24.5617 7.1998 25.2227 7.18453 25.8838 7.16834C26.3245 7.15785 26.7854 7.15555 27.1992 7.13506C27.4995 7.12015 27.6321 7.06893 27.8251 7.03316C28.3726 7.01891 28.9201 7.00466 29.4676 6.99132C30.2355 6.97229 31.0101 6.95507 31.7847 6.93694C32.118 6.90193 32.1633 6.82526 32.7244 6.82104C33.0584 6.81887 33.3855 6.80667 33.7194 6.79903C34.2736 6.78569 34.8211 6.7687 35.3754 6.76175C35.7962 6.75675 35.8686 6.70741 36.0884 6.67617C36.1616 6.66515 36.2282 6.64958 36.315 6.64675C37.1829 6.62032 38.0779 6.61392 38.9256 6.57565C39.0124 6.57191 39.0922 6.55267 39.1119 6.53896C39.1252 6.53165 39.0113 6.51809 38.9377 6.51178C38.8507 6.50458 38.737 6.49739 38.6435 6.49932C35.8857 6.56328 33.128 6.62815 30.3701 6.69211C29.9829 6.70163 29.9828 6.70072 29.0429 6.80203C28.9629 6.81032 28.8695 6.81953 28.7693 6.82237C28.3287 6.83378 27.8812 6.84063 27.4472 6.85476C27.0934 6.86607 26.7993 6.85542 26.5448 6.82284C26.3639 6.79931 26.1766 6.79221 25.9495 6.79427C25.6957 6.79727 25.529 6.80748 25.3825 6.83226C25.1895 6.86621 25.0902 6.91009 24.6828 6.91963C22.8064 6.96079 20.9299 7.00651 19.0602 7.0504C18.7994 7.0379 18.6721 7.01888 18.7385 6.996C18.7783 6.98228 18.8581 6.96395 18.9382 6.96205C19.7061 6.9421 20.4807 6.92488 21.2486 6.90585C21.3554 6.903 21.5024 6.90467 21.5623 6.89548C21.8554 6.85413 21.9611 6.78743 22.5155 6.7823C22.8361 6.77923 23.1631 6.76522 23.4701 6.75213C23.5569 6.74839 23.6367 6.72915 23.6565 6.71545C23.663 6.70814 23.5558 6.69457 23.4755 6.68826C23.181 6.66211 22.8411 6.6944 22.5467 6.67646C22.4464 6.67018 22.3058 6.6612 22.2856 6.65027C22.272 6.64025 22.3852 6.62372 22.4652 6.6136C22.5385 6.6044 22.6385 6.59609 22.7386 6.59325C23.62 6.57136 24.5016 6.54856 25.3831 6.53123C25.7437 6.52447 25.997 6.5014 26.1565 6.45928C26.2761 6.42814 26.4227 6.41157 26.6498 6.40678C28.1923 6.37144 29.7347 6.33245 31.284 6.29983C31.6713 6.29214 31.8712 6.26183 32.0307 6.22244C32.157 6.1913 32.3037 6.1802 32.5508 6.17447C34.7611 6.12476 36.9579 6.06959 39.1682 6.0217C39.5756 6.01307 39.6951 5.97372 39.9015 5.93975C39.9747 5.92782 40.0211 5.91318 40.1144 5.90578C40.2078 5.89839 40.3281 5.89917 40.4416 5.89723C42.2045 5.85619 43.9674 5.81242 45.737 5.7741C46.151 5.76547 46.2301 5.71977 46.4433 5.68762C46.5165 5.67751 46.5831 5.66103 46.6699 5.6582C47.992 5.62583 49.3141 5.59527 50.6362 5.56381C51.5177 5.54283 52.399 5.52185 53.2805 5.50179C53.7145 5.49222 53.7145 5.4913 54.3007 5.40404C54.3673 5.39393 54.4606 5.38198 54.5474 5.37915C57.0848 5.31815 59.6155 5.25991 62.153 5.19983C62.3667 5.19504 62.5199 5.17389 62.6261 5.14277C62.7324 5.11165 62.8857 5.09051 63.0927 5.08573C65.0759 5.03808 67.0591 4.99134 69.049 4.94641C69.4096 4.93875 69.663 4.91659 69.8225 4.87538C69.9421 4.84424 70.0887 4.82767 70.3157 4.82288C72.299 4.77705 74.2823 4.72847 76.2722 4.68446C76.6528 4.67586 76.8392 4.64465 77.0255 4.60797C77.092 4.59514 77.1451 4.5741 77.2252 4.57219C78.2134 4.54563 79.1949 4.51816 80.1899 4.49981C80.604 4.49208 80.7435 4.45362 80.9098 4.41696C81.0428 4.38764 81.1963 4.37745 81.4501 4.37354C82.0044 4.36476 82.5518 4.34869 83.0927 4.33262C83.1728 4.32981 83.2726 4.30963 83.279 4.29686C83.2919 4.27313 83.1378 4.25686 82.8838 4.24891C80.2395 4.31093 77.5886 4.37296 74.9443 4.43497C74.5103 4.44546 74.5103 4.44546 73.9242 4.53273C73.8576 4.54283 73.7642 4.55478 73.6707 4.55762C71.1333 4.6177 68.6026 4.67687 66.0651 4.73695C65.8515 4.74173 65.6983 4.76287 65.592 4.794C65.4858 4.82512 65.3324 4.84626 65.1254 4.85103C62.7015 4.90827 60.2776 4.96641 57.847 5.02091C57.4864 5.02858 57.233 5.04981 57.0735 5.09194C56.9539 5.12308 56.8073 5.13966 56.5802 5.14445C54.2631 5.19792 51.9527 5.25412 49.6288 5.30577C49.3951 5.31058 49.221 5.2843 49.2338 5.25966C49.2402 5.24688 49.3399 5.22581 49.42 5.2239C50.6286 5.19255 51.8306 5.16029 53.046 5.13624C53.4533 5.12852 53.5727 5.08826 53.7791 5.05429C53.8456 5.04237 53.8988 5.0268 53.9855 5.02033C54.0789 5.01294 54.1991 5.01373 54.3127 5.01178C57.1773 4.94407 60.042 4.87544 62.9134 4.81136C63.3274 4.80181 63.4065 4.75702 63.6197 4.72488C63.6929 4.71385 63.7594 4.69737 63.8463 4.69546C64.7276 4.67266 65.6091 4.65259 66.4905 4.63252C68.033 4.59627 69.5755 4.56001 71.1246 4.52375C71.572 4.51326 71.5721 4.51325 72.1448 4.42692C72.2114 4.41681 72.3048 4.40396 72.3916 4.40204C76.4715 4.3057 80.5515 4.20936 84.6315 4.11393C84.8451 4.10915 84.9983 4.08802 85.1046 4.05689C85.2109 4.02668 85.364 4.00463 85.571 3.99894C91.0866 3.8692 96.5956 3.73945 102.111 3.61153C102.472 3.60295 102.725 3.58353 102.885 3.54049C102.998 3.50936 103.151 3.49279 103.378 3.48708C109.441 3.34491 115.504 3.20274 121.574 3.05965C125.654 2.96423 129.734 2.86698 133.814 2.77337C134.188 2.76478 134.388 2.73629 134.574 2.6987C134.634 2.68586 134.694 2.66482 134.774 2.66291C135.648 2.63921 136.523 2.61733 137.398 2.59544C137.672 2.61979 137.947 2.64323 138.221 2.66758C138.427 2.6327 138.627 2.59692 138.834 2.56204C140.156 2.53422 141.458 2.49183 142.793 2.47768C142.88 2.47668 142.974 2.49392 143.068 2.50294C143.69 2.55977 144.044 2.55484 144.437 2.47781C144.577 2.4503 144.696 2.42555 144.91 2.42077C145.571 2.40367 146.239 2.39203 146.893 2.3722C147.247 2.3618 147.541 2.37062 147.796 2.4032C147.977 2.42673 148.164 2.43657 148.384 2.43087C149.6 2.40225 150.808 2.37455 152.023 2.34411C152.11 2.34219 152.19 2.3266 152.257 2.31558C152.396 2.29172 152.516 2.26606 152.649 2.2413C152.83 2.25662 153.031 2.26827 153.178 2.28819C153.366 2.31171 153.539 2.31153 153.793 2.30488C158.641 2.1895 163.495 2.07686 168.343 1.96057C168.757 1.95103 168.938 1.98915 169.219 2.00893C169.313 2.01613 169.407 2.02516 169.507 2.02688C169.614 2.02859 169.727 2.023 169.834 2.02016C173.473 1.93431 177.113 1.84936 180.752 1.76351C181.233 1.75207 181.233 1.75207 181.949 1.80789C182.036 1.8151 182.149 1.82319 182.243 1.82036C183.899 1.78307 185.555 1.74306 187.204 1.70487C187.418 1.70009 187.599 1.71449 187.793 1.73527C188.175 1.77593 188.201 1.77591 188.48 1.71541C188.614 1.687 188.753 1.66951 188.974 1.66108C189.214 1.65171 189.408 1.65425 189.595 1.67048C189.863 1.69301 190.058 1.73111 190.465 1.72066C192.228 1.67597 193.997 1.63857 195.753 1.59298C196.154 1.58253 196.368 1.61332 196.636 1.63585C196.73 1.64396 196.817 1.65664 196.917 1.65928C197.017 1.66191 197.138 1.6554 197.244 1.65255C199.448 1.60102 201.658 1.5504 203.855 1.49523C204.269 1.48477 204.45 1.5238 204.731 1.54358C204.825 1.55078 204.932 1.56344 205.019 1.56153C206.341 1.53189 207.67 1.50041 208.992 1.46894C209.466 1.45751 209.466 1.45842 210.189 1.51332C210.276 1.52053 210.389 1.52771 210.483 1.52579C212.025 1.49044 213.575 1.45418 215.117 1.41793C215.591 1.40649 215.591 1.4065 216.962 1.45252C217.062 1.45606 217.169 1.46143 217.269 1.4595C219.032 1.41846 220.802 1.37832 222.564 1.33454C222.918 1.32597 223.212 1.33296 223.467 1.36554C223.648 1.38907 223.835 1.39891 224.055 1.39321C226.039 1.34647 228.029 1.30155 230.005 1.25207C230.386 1.24256 230.633 1.26236 230.901 1.28854C230.988 1.29757 231.075 1.31026 231.175 1.3138C231.276 1.31735 231.389 1.31358 231.496 1.31073C233.479 1.26399 235.469 1.21998 237.446 1.16959C237.846 1.15915 238.061 1.18994 238.328 1.21247C238.422 1.22058 238.523 1.2369 238.603 1.2359C239.377 1.2196 240.152 1.20512 240.92 1.18152C241.334 1.16833 241.515 1.21009 241.796 1.22987C241.89 1.23616 241.997 1.24974 242.084 1.24783C243.74 1.21054 245.396 1.17144 247.045 1.13142C247.279 1.12571 247.453 1.13373 247.64 1.15726C247.888 1.18893 248.176 1.2014 248.536 1.191C249.304 1.16922 250.079 1.15383 250.853 1.1357C251.307 1.1252 251.307 1.1252 252.698 1.1712C252.798 1.17475 252.905 1.18011 253.005 1.17818C254.327 1.14763 255.656 1.11798 256.972 1.0847C257.325 1.07521 257.62 1.08312 257.874 1.11569C258.055 1.13922 258.235 1.14908 258.463 1.14337C259.678 1.11475 260.887 1.08614 262.102 1.05752C262.543 1.04703 262.983 1.02924 263.424 1.02878C263.745 1.02936 263.979 1.07291 264.267 1.0945C264.347 1.1008 264.481 1.09338 264.588 1.09144C266.13 1.05519 267.679 1.02166 269.215 0.980853C269.616 0.970406 269.83 1.0012 270.098 1.02373C270.192 1.03184 270.292 1.04816 270.372 1.04716C270.927 1.03656 271.474 1.02231 272.028 1.00988C272.689 0.9946 273.357 0.982965 274.012 0.962222C274.546 0.945252 274.748 1.0244 275.175 1.0267C275.503 1.0291 275.836 1.01325 276.164 1.00561C276.825 0.990336 277.486 0.973237 278.147 0.959784C278.381 0.954982 278.561 0.940195 278.634 0.907281C278.647 0.900882 278.533 0.887322 278.459 0.879188C277.569 0.787062 277.569 0.787058 276.674 0.808049C276.12 0.821391 275.572 0.834729 275.018 0.846247C274.924 0.848168 274.817 0.840981 274.724 0.835604C274.456 0.820373 274.483 0.802103 274.709 0.769031C274.936 0.735958 275.108 0.695647 275.301 0.658048C275.576 0.681482 275.844 0.704915 276.118 0.728349C276.338 0.72356 276.559 0.717868 276.779 0.71308C277.881 0.688227 278.983 0.662459 280.084 0.639431C280.165 0.637524 280.265 0.655667 280.359 0.664692C280.627 0.690869 280.868 0.71342 281.255 0.702986C282.243 0.675513 283.238 0.655331 284.226 0.631507C284.66 0.621026 284.66 0.621026 285.423 0.676796C285.51 0.683092 285.624 0.690273 285.717 0.688352C286.712 0.666345 287.7 0.642524 288.695 0.619605C288.909 0.614824 289.116 0.626468 289.271 0.652763C289.331 0.663647 289.318 0.681901 289.575 0.831236C290.366 0.951743 290.907 0.938421 291.454 0.92691C291.688 0.922108 291.895 0.917329 292.048 0.898927C292.128 0.88881 292.228 0.87411 292.228 0.862252C292.228 0.85313 292.08 0.838684 291.987 0.836956C291.325 0.819394 290.698 0.858359 290.05 0.867236C289.749 0.871195 289.488 0.839537 289.434 0.787598C289.42 0.773017 289.4 0.757532 289.379 0.742958C289.359 0.728383 289.345 0.712891 289.325 0.698317C289.064 0.694024 288.911 0.710599 288.798 0.741731C288.705 0.767368 288.572 0.796696 288.392 0.810564C288.212 0.825345 287.965 0.822868 287.744 0.827656C287.531 0.832438 287.297 0.844536 287.097 0.838357C286.896 0.831267 286.735 0.804974 286.548 0.788748C286.461 0.780628 286.354 0.768884 286.267 0.770798C285.499 0.787097 284.738 0.803384 283.976 0.824237C283.576 0.835597 283.375 0.797498 283.12 0.774043C282.919 0.756006 282.719 0.760768 282.686 0.802762C282.602 0.903191 282.91 0.944832 283.591 0.924974C284.152 0.907976 284.659 0.904724 285.102 0.966298C285.162 0.974445 285.302 0.977948 285.389 0.976034C285.937 0.964523 286.477 0.950281 287.025 0.93877C287.125 0.936843 287.232 0.940375 287.326 0.943928C288.69 0.99178 288.69 0.992697 289.15 0.981275C289.371 0.975575 289.584 0.970793 289.562 0.832163C289.979 0.683044 290.647 0.672323 291.295 0.649763C291.715 0.635646 291.897 0.675598 292.171 0.696295C292.265 0.703496 292.365 0.717985 292.452 0.716071C293.888 0.684488 295.317 0.651083 296.746 0.615859C296.986 0.610138 297.16 0.615433 297.347 0.638956C297.588 0.66881 297.856 0.687694 298.237 0.676355C298.998 0.653678 299.772 0.639199 300.547 0.620157C300.941 0.610628 300.941 0.610619 301.737 0.666354C301.824 0.67265 301.938 0.679831 302.031 0.67791C302.806 0.661604 303.574 0.641662 304.342 0.62445C304.555 0.619669 304.749 0.632238 304.917 0.656695C305.084 0.681151 305.285 0.693714 305.492 0.688939C306.267 0.671721 307.035 0.652691 307.803 0.63548C307.896 0.633559 308.01 0.639827 308.097 0.646122C308.913 0.701837 308.913 0.701828 309.287 0.69232C309.834 0.678073 310.395 0.671116 310.936 0.652314C311.464 0.633527 311.739 0.686146 312.1 0.714964C313.088 0.692964 314.083 0.674611 315.065 0.648057C315.465 0.636698 315.68 0.666576 315.947 0.690017C316.041 0.698131 316.135 0.715367 316.222 0.714366C316.556 0.710372 316.883 0.700003 317.21 0.692368C317.537 0.684733 317.871 0.677092 318.199 0.669457C318.573 0.695524 318.822 0.757296 319.356 0.735765C319.676 0.722664 320.017 0.719576 320.344 0.711941C320.671 0.704306 321.005 0.696665 321.332 0.68903C321.552 0.684242 321.78 0.681267 321.993 0.672837C322.387 0.658748 322.582 0.703251 322.863 0.723029C322.956 0.729318 323.063 0.740147 323.15 0.738233C323.811 0.72478 324.479 0.713146 325.127 0.691498C325.627 0.674562 325.969 0.70158 326.324 0.739526C326.397 0.74766 326.524 0.752089 326.618 0.750169C327.392 0.733863 328.16 0.713909 328.928 0.696698C329.135 0.691923 329.336 0.706311 329.503 0.729856C329.678 0.754305 329.872 0.765973 330.085 0.761191C330.853 0.74398 331.628 0.724932 332.396 0.707721C332.489 0.7058 332.603 0.712981 332.69 0.720189C333.439 0.775973 333.439 0.776886 333.88 0.765485C333.987 0.762638 334.1 0.76069 334.207 0.757843C334.755 0.744508 335.323 0.739367 335.857 0.716924C336.471 0.691661 336.919 0.722215 337.354 0.773762C337.902 0.762251 338.463 0.755285 338.997 0.736491C339.397 0.722395 339.612 0.756835 339.88 0.779364C339.973 0.787477 340.074 0.803793 340.154 0.801886C340.929 0.78558 341.703 0.771103 342.464 0.747514C342.878 0.734316 343.06 0.77517 343.341 0.795861C343.434 0.803062 343.535 0.815736 343.621 0.813822C344.062 0.80607 344.503 0.794664 344.944 0.784175C345.458 0.771786 345.458 0.772698 346.14 0.827638C346.462 0.85376 346.782 0.832449 347.096 0.82574C347.43 0.818098 347.743 0.812303 348.011 0.849427C348.179 0.872971 348.38 0.887359 348.587 0.883497C349.027 0.874833 349.475 0.866166 349.909 0.852035C350.256 0.840731 350.557 0.847715 350.811 0.881203C350.992 0.904734 351.179 0.916406 351.4 0.910706C352.388 0.887794 353.383 0.863955 354.371 0.841955C354.458 0.840041 354.578 0.84813 354.659 0.856257C354.846 0.872483 355.027 0.890537 355.208 0.908594C355.642 0.899937 356.089 0.895836 356.517 0.882625C356.971 0.869386 357.385 0.864397 357.74 0.914201C357.814 0.925072 357.921 0.94046 358.008 0.939458C358.342 0.935465 358.669 0.926009 358.996 0.918374C359.323 0.910739 359.657 0.903098 359.984 0.895463C360.365 0.917874 360.607 0.983302 361.141 0.961771C361.462 0.94867 361.802 0.945582 362.13 0.937947C362.457 0.930312 362.791 0.921759 363.118 0.915036C363.225 0.913102 363.345 0.908414 363.439 0.911966C363.539 0.915512 363.626 0.928195 363.713 0.937228C363.981 0.963405 364.228 0.989606 364.609 0.973707C364.929 0.960606 365.27 0.957517 365.597 0.94897C366.044 0.938474 366.045 0.938476 366.787 0.995179C367.088 1.01859 367.428 0.987221 367.716 1.00699C367.91 1.02048 368.078 1.0431 368.265 1.05842C368.345 1.06472 368.472 1.06732 368.566 1.0654C369.006 1.05674 369.454 1.04807 369.888 1.03394C370.242 1.02263 370.536 1.03327 370.784 1.06585C370.965 1.08938 371.145 1.09924 371.372 1.09353C372.474 1.06685 373.576 1.04382 374.671 1.01441C375.045 1.00399 375.346 1.01919 375.553 1.05181C375.909 1.108 376.408 1.0409 376.777 1.08613C377.004 1.11417 377.232 1.14678 377.646 1.13267C378.407 1.10817 379.182 1.09459 379.95 1.07738C380.224 1.10173 380.499 1.12608 380.78 1.15042C381.22 1.13993 381.661 1.12943 382.102 1.11986C382.429 1.11222 382.763 1.10367 383.09 1.09695C383.197 1.09501 383.311 1.09125 383.411 1.0957C383.511 1.10016 383.592 1.11194 383.685 1.12096C384.147 1.16519 384.147 1.1661 384.908 1.14707C385.236 1.13853 385.549 1.13273 385.824 1.16893C386.079 1.20242 386.379 1.20849 386.727 1.1981C387.381 1.17918 388.042 1.16482 388.71 1.15136C388.917 1.14659 389.111 1.16189 389.285 1.18543C389.546 1.22256 389.867 1.21858 390.194 1.20821C390.628 1.19499 391.055 1.18178 391.424 1.23249C391.498 1.24336 391.611 1.25874 391.692 1.25774C392.239 1.24988 392.794 1.24384 393.328 1.22596C393.862 1.20808 394.124 1.26436 394.491 1.29135C395.039 1.27892 395.593 1.26649 396.141 1.25407C396.248 1.25122 396.374 1.24289 396.468 1.24735C396.863 1.2661 397.091 1.33428 397.632 1.31274C397.946 1.30056 398.286 1.29656 398.613 1.29349C398.7 1.29249 398.814 1.30787 398.875 1.31967C398.908 1.32602 398.875 1.34338 398.835 1.35254C398.715 1.37821 398.569 1.40208 398.463 1.42865C398.449 1.43231 398.577 1.44859 398.65 1.45581C398.831 1.47205 399.038 1.4691 399.278 1.46156C399.485 1.45496 399.699 1.46751 399.847 1.49472C399.907 1.50561 399.888 1.52387 399.762 1.5842C399.763 1.6289 399.903 1.60868 399.949 1.57944C400.021 1.53741 399.881 1.52387 399.614 1.54695C399.427 1.56356 399.334 1.58738 399.382 1.60649C399.409 1.61649 399.536 1.62913 399.762 1.5842C400.349 1.52887 400.789 1.51838 401.23 1.50789C401.344 1.50504 401.477 1.49577 401.557 1.50116C401.845 1.52276 402.113 1.54894 402.394 1.57328C402.714 1.56748 403.015 1.55348 403.329 1.58873C403.771 1.63845 403.791 1.63387 404.219 1.62339C404.439 1.61769 404.659 1.61291 404.88 1.60812C405.1 1.60333 405.274 1.61683 405.468 1.63761C405.863 1.68008 405.897 1.68004 406.156 1.62139C406.309 1.58566 406.416 1.57369 406.61 1.58991C407.252 1.6449 407.259 1.64853 407.806 1.63155C408.26 1.6174 408.688 1.61331 409.023 1.66496C409.251 1.70121 409.324 1.69293 409.504 1.65443C409.983 1.55268 410.203 1.55428 411.107 1.62632C411.528 1.66055 411.962 1.62271 412.389 1.6177C412.75 1.61368 413.004 1.63531 413.032 1.69275C413.053 1.7283 413.113 1.75379 413.354 1.7654C413.448 1.76986 413.561 1.77613 413.655 1.77421C414.209 1.76269 414.757 1.74935 415.311 1.73601C415.591 1.72934 415.744 1.68631 415.69 1.62981C415.628 1.56967 415.735 1.54766 416.135 1.52992C416.375 1.51963 416.569 1.52127 416.763 1.53749C416.978 1.55551 416.918 1.57199 416.731 1.60502C416.285 1.68575 416.34 1.73495 416.916 1.79C417.116 1.80895 417.277 1.82612 417.324 1.85435C417.351 1.86892 417.325 1.8881 417.385 1.89898C417.714 1.95976 418.169 1.99852 418.677 2.02719C419.165 2.00206 419.499 2.04275 419.874 2.0752C420.169 2.10044 420.516 2.0782 420.829 2.06875C421.183 2.05835 421.477 2.06534 421.732 2.09883C421.913 2.12236 422.1 2.13311 422.32 2.12832C422.761 2.11784 423.209 2.11099 423.642 2.09595C424.016 2.08279 424.297 2.10075 424.532 2.13152C424.827 2.17044 425.153 2.14365 425.461 2.1488C425.875 2.15476 426.084 2.23573 426.625 2.21328C426.945 2.20018 427.279 2.19528 427.613 2.19128C427.7 2.19028 427.807 2.20568 427.881 2.21655C428.236 2.26635 428.65 2.26319 429.104 2.24813C429.418 2.23777 429.725 2.22833 430.033 2.26268C430.542 2.32054 431.104 2.37104 431.639 2.42431C431.714 2.46619 431.661 2.5155 432.043 2.53973C432.243 2.5523 432.431 2.57127 432.585 2.59209C432.772 2.61653 432.946 2.62273 433.187 2.6161C433.62 2.60288 434.075 2.59967 434.502 2.58281C434.896 2.56781 435.144 2.59766 435.385 2.62569C435.579 2.6483 435.76 2.65905 435.993 2.64239C436.233 2.62664 436.407 2.63649 436.601 2.66092C436.876 2.69438 436.896 2.69072 437.805 2.69982C437.898 2.70063 438.012 2.71419 438.066 2.726C438.093 2.73235 438.033 2.75067 437.986 2.75984C437.926 2.77085 437.833 2.78371 437.746 2.78653C436.758 2.81127 435.763 2.83328 434.775 2.85801C434.675 2.86085 434.568 2.86735 434.495 2.87655C434.415 2.88667 434.315 2.90044 434.315 2.91322C434.315 2.92234 434.449 2.93315 434.543 2.93944C434.837 2.96011 435.184 2.92783 435.472 2.95125C435.666 2.96656 435.826 2.98828 436.02 3.00268C436.101 3.00898 436.228 3.00794 436.328 3.00601C436.662 2.99928 436.989 2.98982 437.323 2.98401C437.416 2.983 437.523 2.99201 437.61 2.99922C438.253 3.05329 438.253 3.05329 438.807 3.04086C439.027 3.03607 439.261 3.02215 439.468 3.0274C439.669 3.03267 439.843 3.05712 440.024 3.07244C440.398 3.10489 440.753 3.13645 440.781 3.20758C440.795 3.23493 441.016 3.25841 441.237 3.26001C441.45 3.26161 441.677 3.25136 441.898 3.24565C442.419 3.23417 442.419 3.23417 443.094 3.28912C443.282 3.30443 443.482 3.30605 443.723 3.29668C443.816 3.29293 443.93 3.29647 444.03 3.30092C444.358 3.31427 444.358 3.3316 444.145 3.36466C443.845 3.41331 443.872 3.41785 444.715 3.45803C445.036 3.4732 445.283 3.50214 445.551 3.52741C445.986 3.56801 445.98 3.568 445.694 3.62212C445.627 3.63405 445.567 3.64688 445.501 3.65972C445.307 3.6955 445.155 3.73396 444.754 3.73803C444.313 3.74213 443.872 3.75718 443.432 3.76767C443.004 3.77815 442.891 3.80015 442.933 3.86214C442.981 3.93689 443.068 3.94501 443.836 3.9433C444.057 3.94308 444.25 3.95017 444.418 3.97463C444.338 4.0039 444.192 4.02686 443.978 4.03255C443.431 4.0468 442.876 4.05923 442.329 4.07165C441.888 4.08214 441.448 4.09263 441.007 4.10312C440.733 4.10978 440.56 4.1574 440.635 4.21023C440.676 4.24029 440.71 4.27036 440.744 4.30043C440.818 4.36055 440.959 4.37592 441.406 4.37272C441.52 4.37169 441.627 4.36428 441.734 4.36599C442.168 4.37193 442.377 4.44743 442.897 4.43138C443.331 4.41816 443.786 4.41496 444.213 4.3981C444.607 4.3831 444.828 4.41572 445.102 4.44007C445.196 4.44818 445.297 4.4654 445.377 4.4644C445.931 4.4538 446.485 4.4432 447.026 4.42531C447.28 4.41775 447.433 4.42306 447.634 4.44475C448.116 4.49716 448.13 4.49441 448.844 4.47725C449.365 4.46394 449.372 4.46576 450.041 4.52071C450.228 4.53603 450.429 4.53582 450.669 4.52827C450.983 4.51883 451.31 4.5039 451.638 4.51724C451.738 4.52079 451.865 4.53161 451.899 4.54343C451.919 4.55162 451.826 4.57178 451.746 4.57825C451.159 4.62629 450.471 4.61879 449.83 4.63861C449.629 4.64429 449.428 4.62716 449.261 4.6027C449.087 4.57825 448.9 4.56842 448.672 4.57321C448.232 4.5837 447.784 4.59055 447.35 4.60559C446.977 4.61874 446.716 4.59803 446.454 4.57002C446.367 4.56099 446.267 4.54376 446.18 4.54476C445.192 4.56402 444.197 4.5833 443.215 4.60985C442.821 4.6212 442.593 4.59225 442.326 4.5679C442.232 4.55979 442.138 4.54255 442.051 4.54355C441.717 4.54754 441.39 4.55791 441.056 4.56556C439.841 4.59417 438.632 4.62279 437.417 4.64958C437.337 4.65149 437.236 4.63243 437.143 4.62432C436.962 4.60809 436.775 4.59277 436.587 4.57746C436.253 4.5851 435.926 4.59456 435.592 4.60037C435.352 4.60427 435.138 4.61727 435.106 4.65196C435.086 4.67479 435.307 4.69554 435.541 4.69347C435.768 4.69142 435.995 4.68023 436.182 4.6919C437.112 4.74932 437.112 4.75024 437.693 4.73778C438.2 4.72631 438.147 4.71724 438.595 4.76695C438.789 4.78864 438.963 4.80124 439.184 4.79553C439.731 4.7822 440.286 4.76886 440.84 4.75734C440.927 4.75542 441.04 4.76443 441.127 4.77164C441.783 4.82569 441.783 4.82752 442.324 4.81328C443.032 4.79613 443.059 4.79154 443.534 4.84669C443.862 4.88467 444.162 4.8579 444.476 4.85575C444.838 4.89096 445.232 4.92248 445.561 4.96228C445.949 5.00931 446.356 5.00067 446.797 4.98654C447.124 4.97617 447.445 4.97219 447.713 5.00931C447.967 5.04371 448.275 5.04705 448.622 5.03757C448.936 5.02904 449.256 5.01137 449.584 5.0311C449.671 5.03648 449.805 5.05003 449.798 5.05825C449.792 5.07103 449.705 5.08936 449.618 5.09492C449.005 5.13296 448.33 5.13274 447.682 5.15074C447.595 5.15356 447.482 5.14364 447.395 5.13644C447.207 5.12021 447.027 5.10124 446.846 5.0841C446.519 5.08991 446.185 5.09207 445.864 5.10335C445.617 5.11181 445.43 5.1111 445.249 5.0894C445.082 5.0695 444.901 5.04505 444.7 5.03887C444.5 5.0327 444.266 5.04662 444.046 5.05232C443.826 5.05802 443.572 5.05554 443.398 5.07032C443.225 5.08509 443.119 5.11713 443.006 5.14279C442.879 5.1712 442.706 5.1805 442.452 5.1835C442.218 5.18648 442.031 5.18302 441.857 5.15766C441.783 5.14679 441.683 5.13868 441.582 5.13148C441.489 5.12519 441.382 5.11527 441.295 5.11718C440.3 5.13919 439.312 5.16302 438.317 5.18594C437.822 5.19739 437.829 5.19738 436.799 5.14462C436.706 5.14016 436.592 5.13389 436.498 5.13581C435.944 5.14733 435.397 5.16067 434.842 5.17401C434.282 5.18736 434.288 5.18553 433.332 5.12905C433.158 5.11828 432.904 5.13314 432.697 5.13153C432.263 5.12741 432.047 5.05101 431.54 5.06613C431.106 5.07935 430.652 5.08255 430.218 5.09942C429.824 5.11442 429.596 5.08273 429.328 5.05838C429.235 5.05026 429.134 5.03212 429.054 5.03403C428.059 5.05512 427.071 5.07895 425.748 5.08305C425.421 5.08339 425.568 5.10239 425.782 5.10856C426.09 5.11827 426.189 5.09902 426.022 5.0627C425.901 5.03728 425.727 5.02468 425.587 5.03121C425.513 5.03494 425.42 5.05237 425.748 5.08305C426.096 5.11735 426.077 5.13653 426.137 5.14741C426.284 5.17371 426.492 5.18444 426.705 5.18057C427.039 5.17384 427.367 5.16439 427.7 5.15857C427.794 5.15665 427.908 5.16292 427.995 5.17013C428.731 5.22592 428.737 5.22957 429.519 5.20687C429.766 5.20023 429.946 5.20004 430.14 5.21717C430.408 5.24062 430.602 5.28055 431.01 5.26736C431.55 5.24947 432.105 5.23887 432.659 5.22826C432.746 5.22635 432.84 5.24267 432.94 5.24986C433.214 5.27147 433.416 5.31232 433.823 5.29456C434.136 5.28056 434.477 5.27655 434.811 5.27347C434.898 5.27247 435.032 5.28693 435.072 5.29874C435.153 5.31964 435.053 5.34438 434.826 5.36194C434.733 5.36934 434.606 5.36764 434.499 5.37049C434.058 5.38098 433.618 5.39237 433.177 5.40104C432.943 5.40584 432.723 5.41976 432.697 5.45353C432.677 5.47636 432.918 5.49617 433.145 5.49412C433.479 5.49103 433.813 5.48339 434.134 5.4712C434.701 5.45055 435.196 5.45551 435.658 5.5125C435.986 5.5523 435.966 5.53773 436.315 5.65596C436.403 5.68597 436.663 5.68844 436.891 5.68638C437.438 5.68125 437.692 5.69468 437.646 5.723C437.587 5.75773 437.393 5.76887 437.146 5.77368C436.705 5.78143 436.265 5.79375 435.824 5.80424C435.717 5.80709 435.597 5.81268 435.497 5.81096C435.397 5.80924 435.303 5.79839 435.216 5.79027C435.028 5.77313 434.868 5.74684 434.667 5.74066C434.466 5.73448 434.233 5.74841 434.013 5.75411C433.792 5.7589 433.559 5.77282 433.358 5.76664C433.158 5.76046 432.99 5.73328 432.809 5.71704C432.722 5.70892 432.615 5.69625 432.528 5.69726C432.088 5.70501 431.647 5.71733 431.206 5.7269C430.665 5.73932 430.665 5.73932 430.009 5.68344C429.822 5.66721 429.628 5.66833 429.381 5.67588C428.847 5.69103 428.84 5.68829 427.864 5.63639C427.77 5.63101 427.656 5.62475 427.563 5.62758C426.568 5.64959 425.58 5.67341 424.592 5.69632C423.743 5.71635 423.743 5.71636 423.278 5.80806C422.932 5.87592 422.925 5.87592 423.266 5.90658C423.541 5.93184 423.789 5.96898 424.09 5.98236C424.37 5.99484 424.717 5.95343 425.025 5.99508C425.179 6.0159 425.38 6.0385 425.574 6.04195C425.881 6.04619 426.208 6.0194 426.503 6.05923C426.65 6.07914 426.871 6.09991 427.058 6.10062C427.386 6.10211 427.72 6.08716 428.047 6.08044C428.147 6.07851 428.26 6.0784 428.354 6.08286C428.454 6.08823 428.541 6.09909 428.628 6.10813C428.896 6.13886 429.184 6.15316 429.531 6.13729C430.098 6.11117 430.606 6.12341 431.048 6.18134C431.109 6.18949 431.256 6.19025 431.349 6.18651C431.589 6.17714 431.796 6.17601 431.977 6.19315C432.051 6.20037 432.158 6.21303 432.145 6.22125C432.125 6.23496 432.045 6.25328 431.958 6.25793C431.331 6.2896 430.657 6.29395 430.009 6.31103C429.922 6.31295 429.815 6.30119 429.728 6.29307C429.541 6.27685 429.38 6.24965 429.179 6.24347C428.979 6.2373 428.745 6.24939 428.525 6.25418C428.304 6.25897 428.071 6.27289 427.87 6.26763C427.67 6.26145 427.482 6.23884 427.321 6.21893C427.134 6.19632 426.953 6.19378 426.706 6.20315C426.386 6.21534 426.052 6.21751 425.725 6.22423C425.544 6.20709 425.363 6.18811 425.176 6.17188C425.089 6.16376 424.982 6.15384 424.888 6.15485C424.448 6.1626 424.007 6.174 423.566 6.18449C423.125 6.19498 423.125 6.19499 422.376 6.1392C422.289 6.13291 422.175 6.12573 422.082 6.12765C421.527 6.13917 420.98 6.1534 420.426 6.16492C420.212 6.1697 420.018 6.15713 419.844 6.13268C419.676 6.10823 419.476 6.09475 419.269 6.09953C418.387 6.11959 417.506 6.13875 416.624 6.16246C416.27 6.17195 415.97 6.16405 415.728 6.13146C415.447 6.09435 415.133 6.1038 414.806 6.11143C414.065 6.13044 414.058 6.12953 413.583 6.0835C413.489 6.07447 413.395 6.05723 413.309 6.05824C412.541 6.07271 411.766 6.08628 411.005 6.10896C410.604 6.12123 410.39 6.08953 410.122 6.06609C410.028 6.05797 409.928 6.04075 409.848 6.04265C409.293 6.05326 408.739 6.06295 408.198 6.08176C407.657 6.10056 407.449 6.01594 407.041 6.01727C406.487 6.01876 405.939 6.0403 405.392 6.05364C404.951 6.06413 404.51 6.07461 404.07 6.0851C403.629 6.09559 403.188 6.10425 402.748 6.11656C402.514 6.12319 402.34 6.11516 402.146 6.09255C401.898 6.0627 401.604 6.0393 401.336 6.01221C400.928 5.97341 400.927 5.9734 400.433 5.98486C400.327 5.9877 400.213 5.98964 400.106 5.99249C399.298 6.01339 399.298 6.01157 398.268 5.95517C398.221 5.95248 398.101 5.96264 398.055 5.96998C397.915 5.99385 397.789 6.01951 397.662 6.04427C397.481 6.02986 397.261 6.02188 397.14 6.00103C396.798 5.94209 396.265 6.02382 395.917 5.9658C395.789 5.94404 395.569 5.92511 395.368 5.91984C395.161 5.91458 394.927 5.92759 394.714 5.93329C394.159 5.94754 394.159 5.94663 393.687 6.02831C393.447 6.06869 393.1 6.06175 392.786 6.07119C392.459 6.08156 392.145 6.08736 391.87 6.05024C391.622 6.01675 391.321 6.00885 390.968 6.02016C390.534 6.03429 390.086 6.04296 389.645 6.05163C389.552 6.05355 389.438 6.04911 389.345 6.04373C388.321 5.99096 388.321 5.99005 387.827 6.00242C387.607 6.00812 387.38 6.01017 387.166 6.0186C386.806 6.03357 386.531 6.0147 386.27 5.98578C386.183 5.97675 386.083 5.95953 385.996 5.96053C385.555 5.96554 385.121 5.9742 384.687 5.98286C384.353 5.98959 384.019 5.99358 383.699 6.00668C383.165 6.02821 382.903 5.96918 382.535 5.94219C381.987 5.95462 381.433 5.9634 380.885 5.98038C380.632 5.98794 380.465 5.98538 380.271 5.96369C380.023 5.93658 379.795 5.9058 379.394 5.9199C378.86 5.93869 378.299 5.94566 377.752 5.95717C377.384 5.92927 377.115 5.87207 376.588 5.8936C376.268 5.9067 375.927 5.90978 375.6 5.91742C375.159 5.92791 374.718 5.93749 374.278 5.94889C373.804 5.96033 373.81 5.95758 373.081 5.90452C372.659 5.87302 372.226 5.90905 371.798 5.91496C371.464 5.91986 371.298 5.96199 371.38 6.01573C371.461 6.06947 371.281 6.11161 370.974 6.11923C370.206 6.13735 369.432 6.15639 368.664 6.17269C368.57 6.17461 368.457 6.16834 368.37 6.16204C367.547 6.10542 367.547 6.10634 367.179 6.11493C366.632 6.12918 366.071 6.13705 365.53 6.15494C365.156 6.16718 364.882 6.14832 364.641 6.11755C364.453 6.09403 364.279 6.08873 364.039 6.09445C361.395 6.1583 358.75 6.21758 356.113 6.28324C355.719 6.29277 355.491 6.26655 355.224 6.2422C355.13 6.23409 355.043 6.21684 354.949 6.21694C354.729 6.21717 354.508 6.2256 354.288 6.23131C353.3 6.25422 352.312 6.28169 351.317 6.29913C350.896 6.30686 350.783 6.34894 350.603 6.38379C350.464 6.41039 350.304 6.4215 350.057 6.4254C349.816 6.4293 349.642 6.42491 349.455 6.40139C349.214 6.37062 348.939 6.35175 348.566 6.3649C348.132 6.37995 347.691 6.38679 347.243 6.39729C347.016 6.40209 346.843 6.41868 346.77 6.45159C346.757 6.45708 346.897 6.47062 346.978 6.47875C347.246 6.50584 347.5 6.5375 347.801 6.55635C348.109 6.57519 348.442 6.55294 348.763 6.54714C348.876 6.5452 348.983 6.53962 349.09 6.54042C349.19 6.54123 349.311 6.54567 349.384 6.5538C349.733 6.59449 350.101 6.62239 350.581 6.59727C350.995 6.6087 351.211 6.68419 351.738 6.66358C352.059 6.65139 352.393 6.64557 352.727 6.64066C352.813 6.63966 352.907 6.65599 353.001 6.6641C353.269 6.68663 353.483 6.72289 353.884 6.70697C354.311 6.69011 354.765 6.68691 355.199 6.67369C355.439 6.66615 355.613 6.67235 355.801 6.69588C356.042 6.72573 356.316 6.74824 356.69 6.73326C357.01 6.72016 357.351 6.71707 357.678 6.70853C358.106 6.69805 358.106 6.69897 358.868 6.75474C358.955 6.76103 359.069 6.76821 359.163 6.76629C359.717 6.75477 360.264 6.74052 360.819 6.72901C361.032 6.72423 361.24 6.73587 361.387 6.76217C361.448 6.77306 361.428 6.79133 361.448 6.80682C360.346 6.83258 359.245 6.85469 358.15 6.88593C357.736 6.89821 357.548 6.861 357.273 6.84031C357.18 6.83311 357.079 6.8177 356.992 6.81962C356.218 6.83592 355.45 6.85313 354.682 6.87399C354.442 6.88062 354.261 6.87716 354.08 6.85089C353.618 6.78113 353.058 6.82002 352.537 6.83059C352.136 6.8383 352.01 6.86672 352.058 6.92687C352.119 6.99796 352.36 7.0196 352.974 7.0062C353.195 7.00141 353.415 6.9948 353.636 6.99092C353.849 6.98705 354.043 6.99871 354.217 7.02316C354.385 7.04761 354.586 7.06018 354.793 7.05632C355.233 7.04765 355.681 7.03898 356.108 7.02486C356.462 7.01355 356.756 7.02237 357.004 7.05586C357.279 7.09298 357.599 7.08444 357.92 7.0759C358.668 7.05688 358.674 7.05779 359.143 7.10292C359.236 7.11194 359.33 7.12918 359.417 7.12818C360.185 7.1137 360.96 7.10105 361.714 7.07837C362.108 7.06702 362.336 7.09597 362.597 7.11942C362.691 7.12754 362.785 7.14568 362.871 7.14377C363.426 7.13316 363.98 7.12256 364.521 7.10467C364.774 7.09619 364.928 7.10151 365.136 7.12318C365.631 7.17649 365.645 7.17466 366.346 7.1566C366.559 7.15091 366.793 7.14064 366.993 7.14773C367.194 7.15482 367.355 7.18111 367.542 7.19734C367.629 7.20454 367.736 7.21446 367.83 7.21254C368.271 7.20479 368.711 7.19339 369.152 7.1829C369.566 7.17244 369.566 7.17336 370.342 7.22911C370.657 7.25251 370.984 7.2321 371.298 7.22448C371.638 7.21591 371.945 7.2156 372.207 7.25091C372.468 7.28621 372.782 7.28406 373.116 7.27642C373.43 7.2688 373.75 7.24841 374.071 7.2727C374.807 7.3285 374.807 7.3294 375.261 7.31799C375.922 7.3018 376.576 7.28653 377.244 7.27216C377.331 7.27025 377.445 7.28108 377.532 7.28829C377.719 7.30451 377.88 7.33171 378.081 7.33789C378.281 7.34498 378.515 7.33379 378.729 7.3281C379.416 7.31006 379.463 7.30363 379.925 7.36335C380.314 7.41221 380.793 7.34057 381.155 7.39675C381.363 7.42846 381.644 7.45371 382.031 7.4378C382.351 7.4247 382.685 7.42071 383.019 7.41307C383.547 7.40066 383.547 7.40159 384.216 7.45563C384.303 7.46284 384.417 7.47183 384.503 7.46992C384.944 7.46217 385.392 7.45532 385.819 7.43846C386.32 7.41879 386.641 7.45313 387.016 7.48649C387.31 7.51264 387.657 7.49039 387.971 7.48094C388.312 7.47147 388.619 7.47388 388.873 7.5092C389.141 7.54541 389.455 7.54052 389.789 7.53288C390.103 7.52617 390.423 7.50486 390.745 7.53007C391.434 7.58592 391.434 7.58592 391.935 7.57445C392.375 7.56397 392.816 7.55257 393.257 7.54482C393.344 7.5429 393.451 7.55465 393.538 7.56277C393.725 7.57899 393.886 7.6062 394.087 7.61238C394.287 7.61856 394.521 7.60646 394.741 7.60167C394.961 7.59688 395.195 7.58296 395.396 7.58822C395.596 7.59349 395.784 7.6161 395.944 7.63601C396.132 7.65953 396.306 7.66208 396.559 7.6527C396.88 7.64051 397.214 7.63743 397.541 7.63071C397.722 7.64785 397.909 7.66499 398.083 7.68396C398.264 7.70385 398.458 7.70182 398.705 7.69518C399.526 7.67244 399.533 7.67518 400.222 7.73102C400.536 7.75624 400.863 7.73492 401.177 7.72821C401.511 7.72057 401.825 7.7166 402.086 7.75282C402.341 7.78722 402.655 7.79145 402.989 7.78016C403.202 7.77264 403.429 7.76785 403.65 7.76489C403.75 7.76387 403.87 7.7674 403.944 7.77462C404.299 7.81257 404.647 7.84687 405.134 7.82174C405.562 7.8286 405.777 7.90317 406.291 7.88805C406.725 7.87483 407.179 7.87162 407.607 7.85476C408 7.83976 408.282 7.86502 408.483 7.89674C408.845 7.95292 409.351 7.87577 409.713 7.93104C409.92 7.96276 410.188 7.98802 410.589 7.97392C411.029 7.95888 411.17 7.97788 411.298 8.03522C411.372 8.06798 411.36 8.09445 411.226 8.12013C411.093 8.14672 410.946 8.14231 410.732 8.11243C410.484 8.07894 410.19 8.07285 409.836 8.08051C409.489 8.08816 409.274 8.04096 408.986 8.02301C408.699 8.00415 408.359 8.03643 408.058 8.01211C407.348 7.95537 407.348 7.95537 406.867 7.96682C406.54 7.97445 406.2 7.97845 405.879 7.99155C405.499 8.00745 405.251 7.97943 404.99 7.95415C404.896 7.94513 404.802 7.92789 404.722 7.92889C403.954 7.94336 403.179 7.95693 402.418 7.98052C402.018 7.9928 401.803 7.96018 401.536 7.93765C401.442 7.92954 401.341 7.91322 401.261 7.91513C400.6 7.92858 399.946 7.94567 399.285 7.96186C399.158 7.98662 399.018 8.01048 398.899 8.03706C398.772 8.06455 398.599 8.07659 398.345 8.07594C397.924 8.07638 397.511 8.11512 397.089 8.06721C396.654 8.0184 396.62 8.02117 396.2 8.03346C395.666 8.04952 395.098 8.04646 394.597 8.08255C394.511 8.08902 394.417 8.10644 394.418 8.11921C394.411 8.12743 394.552 8.13915 394.639 8.14635C394.933 8.16794 395.273 8.13567 395.568 8.15817C395.762 8.17256 395.922 8.19429 396.116 8.20959C396.197 8.2159 396.317 8.21486 396.424 8.21384C396.537 8.21281 396.644 8.20632 396.751 8.20712C396.851 8.20793 396.958 8.21329 397.039 8.22141C397.407 8.2557 397.795 8.28723 398.123 8.32794C398.445 8.36774 398.745 8.34007 399.065 8.33791C400.349 8.40044 400.349 8.40135 401.211 8.3804C401.424 8.37562 401.645 8.36992 401.865 8.3706C401.959 8.37051 402.046 8.38683 402.14 8.39585C402.407 8.42294 402.662 8.44731 403.036 8.43233C403.356 8.41923 403.697 8.41614 404.024 8.4076C404.465 8.39711 404.465 8.39711 405.214 8.4538C405.401 8.46821 405.602 8.46618 405.842 8.45864C406.049 8.45204 406.263 8.4655 406.41 8.4918C406.471 8.50268 406.451 8.52095 406.472 8.53643C405.81 8.55171 405.143 8.56243 404.502 8.58499C404.088 8.5991 403.9 8.56007 403.626 8.53937C403.532 8.53217 403.431 8.51677 403.345 8.51868C402.69 8.53304 402.036 8.54921 401.382 8.56813C401.301 8.57004 401.202 8.59112 401.195 8.6039C401.182 8.62763 401.35 8.65026 401.59 8.6491C401.911 8.64786 402.225 8.63203 402.513 8.66913C402.754 8.70172 403.055 8.71601 403.408 8.70105C403.622 8.69262 403.849 8.69238 404.063 8.68487C404.63 8.66239 405.145 8.66642 405.574 8.72801C405.901 8.74409 406.222 8.72825 406.535 8.71972C406.769 8.71309 406.996 8.70647 407.164 8.72363C407.518 8.75975 407.866 8.79588 408.354 8.77075C408.882 8.79575 409.284 8.84915 409.726 8.89248C409.933 8.91325 410.094 8.92495 410.334 8.91101C410.434 8.90544 410.554 8.90531 410.661 8.90246C410.882 8.89767 411.115 8.88375 411.316 8.88901C411.516 8.89519 411.684 8.92148 411.864 8.93771C411.951 8.94583 412.052 8.95941 412.139 8.95841C412.473 8.9535 412.8 8.94404 413.127 8.93641C413.454 8.92968 413.781 8.92297 414.109 8.91624C414.383 8.93968 414.664 8.96311 414.938 8.98654C415.379 8.97605 415.82 8.96556 416.254 8.95599C416.742 8.94454 416.741 8.94545 417.444 9.00128C417.759 9.0265 418.092 9.00973 418.393 8.99757C418.893 8.97789 419.228 9.01222 419.583 9.04834C419.657 9.05556 419.79 9.05998 419.877 9.05624C420.224 9.04312 420.525 9.05284 420.779 9.08632C420.96 9.10986 421.141 9.12062 421.361 9.11583C422.129 9.09771 422.897 9.07867 423.665 9.06237C423.759 9.06045 423.866 9.06855 423.953 9.07576C424.635 9.1307 424.642 9.13343 425.143 9.11832C425.59 9.10508 426.004 9.09918 426.359 9.14899C426.433 9.15986 426.547 9.17525 426.627 9.17425C427.175 9.16457 427.729 9.15396 428.27 9.1379C428.517 9.13034 428.69 9.13291 428.885 9.15369C429.132 9.17988 429.354 9.21158 429.761 9.19931C430.889 9.16439 430.896 9.16985 432.233 9.23141C432.327 9.23587 432.454 9.22845 432.56 9.22469C432.787 9.21534 432.955 9.22794 433.155 9.24871C433.604 9.29568 433.617 9.29293 434.045 9.28246C434.372 9.27391 434.713 9.27173 435.033 9.25772C435.527 9.23714 435.855 9.27238 436.223 9.30575C436.518 9.3319 436.858 9.30966 437.172 9.30112C437.512 9.29165 437.82 9.29406 438.074 9.32846C438.248 9.352 438.436 9.36459 438.656 9.3598C439.424 9.34259 440.192 9.32355 440.96 9.30634C441.053 9.30442 441.167 9.3116 441.254 9.31789C442.017 9.37366 442.017 9.3764 442.771 9.35464C443.012 9.34801 443.212 9.34598 443.393 9.36495C443.567 9.38301 443.754 9.40015 443.935 9.41729C444.262 9.41057 444.596 9.40841 444.917 9.39713C445.164 9.38866 445.337 9.39214 445.531 9.41109C445.786 9.43546 446.001 9.4781 446.401 9.45671C446.608 9.44646 446.848 9.44896 447.055 9.43962C447.302 9.42751 447.469 9.43463 447.664 9.45815C447.905 9.48617 448.152 9.51511 448.54 9.50011C448.967 9.48325 449.421 9.48005 449.855 9.46683C450.095 9.45929 450.263 9.46641 450.457 9.48993C450.698 9.51978 450.972 9.53866 451.346 9.52641C452.107 9.50283 452.114 9.50737 452.857 9.56408C453.044 9.57848 453.245 9.57645 453.485 9.56891C453.692 9.56231 453.906 9.57577 454.053 9.60207C454.194 9.63112 454.181 9.64937 454.195 9.66486ZM394.496 1.49933C394.275 1.50411 394.055 1.50981 393.733 1.43079C393.712 1.41712 393.725 1.40069 393.678 1.38888C393.571 1.36437 393.404 1.34721 393.203 1.34468C392.842 1.3414 392.409 1.37286 392.416 1.39657C392.423 1.41663 392.537 1.43384 392.758 1.45003C392.851 1.45632 392.925 1.46719 393.012 1.4744C393.266 1.49512 393.468 1.53597 393.835 1.51461C393.767 1.45812 393.801 1.48636 393.835 1.51461C393.802 1.5493 393.903 1.57383 394.143 1.58362C394.21 1.58628 394.31 1.58435 394.364 1.57882C394.57 1.55854 394.603 1.53115 394.448 1.45924C394.422 1.47113 394.442 1.49208 394.502 1.49749C394.563 1.5029 394.709 1.4982 394.783 1.49174C394.97 1.47421 395.063 1.45131 395.016 1.4322C394.989 1.4222 394.861 1.40956 394.781 1.40964C394.641 1.40978 394.514 1.42998 394.496 1.49933ZM448.732 12.0221C448.244 12.04 447.683 12.0342 447.196 12.0702C447.109 12.0767 447.023 12.0932 447.016 12.106C447.01 12.1142 447.144 12.1259 447.224 12.1323C447.405 12.1467 447.605 12.1419 447.839 12.1371C448.193 12.1303 448.401 12.1721 448.675 12.1928C448.762 12.1991 448.876 12.2035 448.969 12.2016C449.51 12.1901 450.044 12.1777 450.585 12.1644C450.679 12.1615 450.779 12.155 450.859 12.1467C451.125 12.12 451.098 12.1027 450.837 12.0829C450.55 12.0613 450.322 12.0251 450.028 12.008C449.606 11.9838 449.179 12.0171 448.732 12.0221ZM410.806 12.7272C410.479 12.7348 410.159 12.7424 409.831 12.7501C409.725 12.7529 409.611 12.7539 409.511 12.7577C409.304 12.7643 409.151 12.7836 409.051 12.8138C409.205 12.8374 409.393 12.8508 409.6 12.8479C409.927 12.8421 410.247 12.8299 410.575 12.8268C410.929 12.8228 411.137 12.8636 411.411 12.8843C411.498 12.8906 411.605 12.8914 411.705 12.8922C412.199 12.8954 412.499 12.8476 412.404 12.7811C412.336 12.7292 412.082 12.6985 411.775 12.7052C411.454 12.7119 411.127 12.7195 410.806 12.7272ZM450.989 10.6716C451.069 10.656 451.155 10.645 451.195 10.6312C451.314 10.5846 451.267 10.55 451.046 10.5137C450.777 10.4693 450.451 10.4997 450.15 10.5046C450.077 10.5056 449.997 10.5248 449.957 10.5367C449.931 10.545 449.931 10.5623 449.971 10.5668C450.299 10.603 450.647 10.6364 450.989 10.6716ZM392.98 8.03678C392.659 8.04441 392.332 8.05022 392.012 8.06058C391.931 8.0634 391.858 8.08081 391.812 8.09271C391.725 8.11469 391.819 8.1447 392.093 8.14715C392.407 8.15048 392.734 8.13464 393.062 8.127C393.476 8.11745 393.722 8.08344 393.568 8.05441C393.42 8.02629 393.22 8.02102 392.98 8.03678ZM41.2813 6.45007C41.495 6.44529 41.7154 6.44141 41.929 6.43481C42.1293 6.42821 42.2827 6.40799 42.3823 6.37778C42.2148 6.35424 42.0274 6.34166 41.8204 6.34461C41.4931 6.35042 41.1726 6.35805 40.8522 6.3675C40.6519 6.37318 40.4586 6.39345 40.4125 6.42451C40.3662 6.44828 40.8139 6.4615 41.2813 6.45007ZM364.685 5.97611C364.772 5.98423 364.859 6.00056 364.946 6.00047C365.159 6.00025 365.38 5.99455 365.58 5.98522C365.667 5.98148 365.733 5.965 365.773 5.95218C365.8 5.94395 365.793 5.92936 365.753 5.92211C365.558 5.87852 364.783 5.89483 364.657 5.94513C364.644 5.95426 364.678 5.96608 364.685 5.97611ZM343.505 1.00276C343.525 1.01734 343.532 1.03192 343.559 1.04649C343.613 1.0738 343.761 1.09372 343.975 1.10718C344.141 1.08421 344.228 1.05858 344.221 1.03122C344.214 1.01663 344.193 1.00205 344.166 0.987482C344.112 0.960172 343.965 0.940262 343.751 0.9268C343.584 0.948865 343.504 0.974484 343.505 1.00276ZM466.472 12.8285C466.412 12.8404 466.352 12.8523 466.286 12.8633C466.467 12.8896 466.634 12.8976 466.761 12.8829C466.841 12.8737 466.887 12.86 466.947 12.8481C466.766 12.8218 466.605 12.8147 466.472 12.8285ZM462.319 12.9568C462.406 12.9649 462.487 12.9758 462.58 12.9812C462.734 12.9901 462.874 12.9745 462.98 12.9415C462.893 12.9334 462.813 12.9225 462.719 12.9172C462.566 12.9082 462.426 12.9239 462.319 12.9568ZM464.948 12.7872C464.902 12.8091 464.996 12.8273 465.243 12.8425C465.303 12.8306 465.383 12.8196 465.423 12.8068C465.489 12.7857 465.375 12.7667 465.134 12.7523C465.068 12.7633 465.008 12.7753 464.948 12.7872ZM450.825 11.8184C450.779 11.8403 450.873 11.8585 451.12 11.8737C451.18 11.8618 451.26 11.8508 451.3 11.838C451.366 11.8169 451.252 11.7979 451.012 11.7835C450.945 11.7945 450.885 11.8065 450.825 11.8184ZM431.48 5.38363C431.42 5.39556 431.36 5.40748 431.293 5.41849C431.474 5.44476 431.641 5.45279 431.768 5.43807C431.848 5.42886 431.894 5.41513 431.954 5.40321C431.773 5.37694 431.613 5.36981 431.48 5.38363ZM413.004 1.9783C413.165 1.98452 413.298 1.97161 413.411 1.93775C413.324 1.92963 413.244 1.91876 413.15 1.91338C412.996 1.90442 412.856 1.92008 412.75 1.95303C412.837 1.96206 412.924 1.97017 413.004 1.9783ZM403.226 1.77402C403.167 1.78594 403.107 1.79786 403.04 1.80887C403.221 1.83514 403.388 1.84317 403.515 1.82845C403.595 1.81924 403.641 1.80551 403.701 1.79359C403.52 1.76732 403.36 1.76111 403.226 1.77402ZM336.931 1.00863C336.872 1.02055 336.812 1.03247 336.745 1.04348C336.926 1.06975 337.093 1.07779 337.22 1.06306C337.3 1.05385 337.346 1.04012 337.406 1.0282C337.225 1.00194 337.065 0.995719 336.931 1.00863ZM7.07024 8.77039C6.98322 8.76227 6.89628 8.75416 6.81593 8.74512C6.6227 8.76995 6.56306 8.79282 6.67031 8.81004C6.73734 8.82091 6.8376 8.8272 6.92461 8.83532C7.12452 8.81048 7.17082 8.78854 7.07024 8.77039Z" fill="#FFE492"/>
</svg>
